<?xml version="1.0" encoding="UTF-8" standalone="no"?>
<svg
   xmlns:dc="http://purl.org/dc/elements/1.1/"
   xmlns:cc="http://creativecommons.org/ns#"
   xmlns:rdf="http://www.w3.org/1999/02/22-rdf-syntax-ns#"
   xmlns:svg="http://www.w3.org/2000/svg"
   xmlns="http://www.w3.org/2000/svg"
   viewBox="0 0 816 1056"
   height="1056"
   width="816"
   xml:space="preserve"
   id="svg2"
   version="1.1"><metadata
     id="metadata8"><rdf:RDF><cc:Work
         rdf:about=""><dc:format>image/svg+xml</dc:format><dc:type
           rdf:resource="http://purl.org/dc/dcmitype/StillImage" /></cc:Work></rdf:RDF></metadata><defs
     id="defs6" /><g
     transform="matrix(1.3333333,0,0,-1.3333333,0,1056)"
     id="g10"><g
       transform="scale(1,-1)"
       id="g12"><path
         id="path14"
         style="fill:#000000;fill-opacity:1;fill-rule:nonzero;stroke:none"
         d="m 380.15918,-347.47852 c 0,0 -158.3999,0 -158.3999,0 0,0 0,-158.40039 0,-158.40039 0,0 158.3999,0 158.3999,0 0,0 0,158.40039 0,158.40039 z" /><path
         id="path16"
         style="fill:#ffb8de;fill-opacity:1;fill-rule:nonzero;stroke:none"
         d="m 293.04053,-395.00049 c 0,0 0.99023,0 0.99023,0 0,0 0,-0.99023 0,-0.99023 0,0 0.98975,0 0.98975,0 0,0 0,-0.98975 0,-0.98975 0,0 0.99023,0 0.99023,0 0,0 0,0.98975 0,0.98975 0,0 0.98975,0 0.98975,0 0,0 0,0.99023 0,0.99023 0,0 1.97998,0 1.97998,0 0,0 0,-1.97998 0,-1.97998 0,0 1.97998,0 1.97998,0 0,0 0,1.97998 0,1.97998 0,0 1.97998,0 1.97998,0 0,0 0,-0.99023 0,-0.99023 0,0 0.99023,0 0.99023,0 0,0 0,-0.98975 0,-0.98975 0,0 0.98975,0 0.98975,0 0,0 0,0.98975 0,0.98975 0,0 0.99023,0 0.99023,0 0,0 0,0.99023 0,0.99023 0,0 0.98975,0 0.98975,0 0,0 0,-7.91992 0,-7.91992 0,0 -0.98975,0 -0.98975,0 0,0 0,-2.96973 0,-2.96973 0,0 -0.99023,0 -0.99023,0 0,0 0,-0.99023 0,-0.99023 0,0 -0.98975,0 -0.98975,0 0,0 0,-0.98975 0,-0.98975 0,0 -1.97998,0 -1.97998,0 0,0 0,-0.99023 0,-0.99023 0,0 -3.95996,0 -3.95996,0 0,0 0,0.99023 0,0.99023 0,0 -1.97998,0 -1.97998,0 0,0 0,0.98975 0,0.98975 0,0 -0.99023,0 -0.99023,0 0,0 0,0.99023 0,0.99023 0,0 -0.98975,0 -0.98975,0 0,0 0,2.96973 0,2.96973 0,0 -0.99023,0 -0.99023,0 0,0 0,7.91992 0,7.91992 z" /><path
         id="path18"
         style="fill:#ffffff;fill-opacity:1;fill-rule:nonzero;stroke:none"
         d="m 296.01074,-404.90039 c 0,0 1.97998,0 1.97998,0 0,0 0,0.99023 0,0.99023 0,0 0.98975,0 0.98975,0 0,0 0,2.96973 0,2.96973 0,0 -0.98975,0 -0.98975,0 0,0 0,0.99023 0,0.99023 0,0 -1.97998,0 -1.97998,0 0,0 0,-0.99023 0,-0.99023 0,0 -0.99023,0 -0.99023,0 0,0 0,-2.96973 0,-2.96973 0,0 0.99023,0 0.99023,0 0,0 0,-0.99023 0,-0.99023 z" /><path
         id="path20"
         style="fill:#ffffff;fill-opacity:1;fill-rule:nonzero;stroke:none"
         d="m 301.95068,-404.90039 c 0,0 1.97998,0 1.97998,0 0,0 0,0.99023 0,0.99023 0,0 0.98975,0 0.98975,0 0,0 0,2.96973 0,2.96973 0,0 -0.98975,0 -0.98975,0 0,0 0,0.99023 0,0.99023 0,0 -1.97998,0 -1.97998,0 0,0 0,-0.99023 0,-0.99023 0,0 -0.99023,0 -0.99023,0 0,0 0,-2.96973 0,-2.96973 0,0 0.99023,0 0.99023,0 0,0 0,-0.99023 0,-0.99023 z" /><path
         id="path22"
         style="fill:#0a50ff;fill-opacity:1;fill-rule:nonzero;stroke:none"
         d="m 296.01074,-401.93018 c 0,0 1.97998,0 1.97998,0 0,0 0,1.97998 0,1.97998 0,0 -1.97998,0 -1.97998,0 0,0 0,-1.97998 0,-1.97998 z" /><path
         id="path24"
         style="fill:#0a50ff;fill-opacity:1;fill-rule:nonzero;stroke:none"
         d="m 301.95068,-401.93018 c 0,0 1.97998,0 1.97998,0 0,0 0,1.97998 0,1.97998 0,0 -1.97998,0 -1.97998,0 0,0 0,-1.97998 0,-1.97998 z" /><path
         id="path26"
         style="fill:#ffb8de;fill-opacity:1;fill-rule:nonzero;stroke:none"
         d="m 293.04053,-418.76025 c 0,0 0.99023,0 0.99023,0 0,0 0,-0.99024 0,-0.99024 0,0 0.98975,0 0.98975,0 0,0 0,-0.98974 0,-0.98974 0,0 0.99023,0 0.99023,0 0,0 0,0.98974 0,0.98974 0,0 0.98975,0 0.98975,0 0,0 0,0.99024 0,0.99024 0,0 1.97998,0 1.97998,0 0,0 0,-1.97998 0,-1.97998 0,0 1.97998,0 1.97998,0 0,0 0,1.97998 0,1.97998 0,0 1.97998,0 1.97998,0 0,0 0,-0.99024 0,-0.99024 0,0 0.99023,0 0.99023,0 0,0 0,-0.98974 0,-0.98974 0,0 0.98975,0 0.98975,0 0,0 0,0.98974 0,0.98974 0,0 0.99023,0 0.99023,0 0,0 0,0.99024 0,0.99024 0,0 0.98975,0 0.98975,0 0,0 0,-7.91993 0,-7.91993 0,0 -0.98975,0 -0.98975,0 0,0 0,-2.96972 0,-2.96972 0,0 -0.99023,0 -0.99023,0 0,0 0,-0.99024 0,-0.99024 0,0 -0.98975,0 -0.98975,0 0,0 0,-0.98974 0,-0.98974 0,0 -1.97998,0 -1.97998,0 0,0 0,-0.99024 0,-0.99024 0,0 -3.95996,0 -3.95996,0 0,0 0,0.99024 0,0.99024 0,0 -1.97998,0 -1.97998,0 0,0 0,0.98974 0,0.98974 0,0 -0.99023,0 -0.99023,0 0,0 0,0.99024 0,0.99024 0,0 -0.98975,0 -0.98975,0 0,0 0,2.96972 0,2.96972 0,0 -0.99023,0 -0.99023,0 0,0 0,7.91993 0,7.91993 z" /><path
         id="path28"
         style="fill:#ffffff;fill-opacity:1;fill-rule:nonzero;stroke:none"
         d="m 295.02051,-429.6499 c 0,0 1.97998,0 1.97998,0 0,0 0,0.99023 0,0.99023 0,0 0.98974,0 0.98974,0 0,0 0,2.96973 0,2.96973 0,0 -0.98974,0 -0.98974,0 0,0 0,0.99023 0,0.99023 0,0 -1.97998,0 -1.97998,0 0,0 0,-0.99023 0,-0.99023 0,0 -0.99024,0 -0.99024,0 0,0 0,-2.96973 0,-2.96973 0,0 0.99024,0 0.99024,0 0,0 0,-0.99023 0,-0.99023 z" /><path
         id="path30"
         style="fill:#ffffff;fill-opacity:1;fill-rule:nonzero;stroke:none"
         d="m 300.96045,-429.6499 c 0,0 1.97998,0 1.97998,0 0,0 0,0.99023 0,0.99023 0,0 0.98975,0 0.98975,0 0,0 0,2.96973 0,2.96973 0,0 -0.98975,0 -0.98975,0 0,0 0,0.99023 0,0.99023 0,0 -1.97998,0 -1.97998,0 0,0 0,-0.99023 0,-0.99023 0,0 -0.99024,0 -0.99024,0 0,0 0,-2.96973 0,-2.96973 0,0 0.99024,0 0.99024,0 0,0 0,-0.99023 0,-0.99023 z" /><path
         id="path32"
         style="fill:#0a50ff;fill-opacity:1;fill-rule:nonzero;stroke:none"
         d="m 294.03027,-427.66992 c 0,0 1.97998,0 1.97998,0 0,0 0,1.97998 0,1.97998 0,0 -1.97998,0 -1.97998,0 0,0 0,-1.97998 0,-1.97998 z" /><path
         id="path34"
         style="fill:#0a50ff;fill-opacity:1;fill-rule:nonzero;stroke:none"
         d="m 299.97021,-427.66992 c 0,0 1.97999,0 1.97999,0 0,0 0,1.97998 0,1.97998 0,0 -1.97999,0 -1.97999,0 0,0 0,-1.97998 0,-1.97998 z" /><path
         id="path36"
         style="fill:#ff1a00;fill-opacity:1;fill-rule:nonzero;stroke:none"
         d="m 270.26953,-442.52051 c 0,0 0.99024,0 0.99024,0 0,0 0,-0.99023 0,-0.99023 0,0 0.99023,0 0.99023,0 0,0 0,-0.98975 0,-0.98975 0,0 0.98926,0 0.98926,0 0,0 0,0.98975 0,0.98975 0,0 0.99023,0 0.99023,0 0,0 0,0.99023 0,0.99023 0,0 1.97949,0 1.97949,0 0,0 0,-1.97998 0,-1.97998 0,0 1.98047,0 1.98047,0 0,0 0,1.97998 0,1.97998 0,0 1.9795,0 1.9795,0 0,0 0,-0.99023 0,-0.99023 0,0 0.99023,0 0.99023,0 0,0 0,-0.98975 0,-0.98975 0,0 0.99023,0 0.99023,0 0,0 0,0.98975 0,0.98975 0,0 0.99024,0 0.99024,0 0,0 0,0.99023 0,0.99023 0,0 0.98926,0 0.98926,0 0,0 0,-7.91992 0,-7.91992 0,0 -0.98926,0 -0.98926,0 0,0 0,-2.97021 0,-2.97021 0,0 -0.99024,0 -0.99024,0 0,0 0,-0.98975 0,-0.98975 0,0 -0.99023,0 -0.99023,0 0,0 0,-0.99024 0,-0.99024 0,0 -1.97949,0 -1.97949,0 0,0 0,-0.98974 0,-0.98974 0,0 -3.96094,0 -3.96094,0 0,0 0,0.98974 0,0.98974 0,0 -1.97949,0 -1.97949,0 0,0 0,0.99024 0,0.99024 0,0 -0.98926,0 -0.98926,0 0,0 0,0.98975 0,0.98975 0,0 -0.99023,0 -0.99023,0 0,0 0,2.97021 0,2.97021 0,0 -0.99024,0 -0.99024,0 0,0 0,7.91992 0,7.91992 z" /><path
         id="path38"
         style="fill:#ffffff;fill-opacity:1;fill-rule:nonzero;stroke:none"
         d="m 274.22949,-453.41113 c 0,0 0,0.99023 0,0.99023 0,0 -0.99023,0 -0.99023,0 0,0 0,2.97022 0,2.97022 0,0 0.99023,0 0.99023,0 0,0 0,0.99023 0,0.99023 0,0 1.97949,0 1.97949,0 0,0 0,-0.99023 0,-0.99023 0,0 0.99122,0 0.99122,0 0,0 0,-2.97022 0,-2.97022 0,0 -0.99122,0 -0.99122,0 0,0 0,-0.99023 0,-0.99023 0,0 -1.97949,0 -1.97949,0 z" /><path
         id="path40"
         style="fill:#ffffff;fill-opacity:1;fill-rule:nonzero;stroke:none"
         d="m 280.16895,-448.46045 c 0,0 1.98046,0 1.98046,0 0,0 0,-0.99023 0,-0.99023 0,0 0.99024,0 0.99024,0 0,0 0,-2.97022 0,-2.97022 0,0 -0.99024,0 -0.99024,0 0,0 0,-0.99023 0,-0.99023 0,0 -1.98046,0 -1.98046,0 0,0 0,0.99023 0,0.99023 0,0 -0.98829,0 -0.98829,0 0,0 0,2.97022 0,2.97022 0,0 0.98829,0 0.98829,0 0,0 0,0.99023 0,0.99023 z" /><path
         id="path42"
         style="fill:#0a50ff;fill-opacity:1;fill-rule:nonzero;stroke:none"
         d="m 275.21875,-451.43164 c 0,0 0,1.98096 0,1.98096 0,0 1.98047,0 1.98047,0 0,0 0,-1.98096 0,-1.98096 0,0 -1.98047,0 -1.98047,0 z" /><path
         id="path44"
         style="fill:#0a50ff;fill-opacity:1;fill-rule:nonzero;stroke:none"
         d="m 281.1582,-451.43164 c 0,0 0,1.98096 0,1.98096 0,0 1.98047,0 1.98047,0 0,0 0,-1.98096 0,-1.98096 0,0 -1.98047,0 -1.98047,0 z" /><path
         id="path46"
         style="fill:#ff1a00;fill-opacity:1;fill-rule:nonzero;stroke:none"
         d="m 270.26855,-466.27979 c 0,0 0.99024,0 0.99024,0 0,0 0,-0.99023 0,-0.99023 0,0 0.99023,0 0.99023,0 0,0 0,-0.98975 0,-0.98975 0,0 0.99024,0 0.99024,0 0,0 0,0.98975 0,0.98975 0,0 0.98926,0 0.98926,0 0,0 0,0.99023 0,0.99023 0,0 1.98046,0 1.98046,0 0,0 0,-1.97998 0,-1.97998 0,0 1.9795,0 1.9795,0 0,0 0,1.97998 0,1.97998 0,0 1.98047,0 1.98047,0 0,0 0,-0.99023 0,-0.99023 0,0 0.99023,0 0.99023,0 0,0 0,-0.98975 0,-0.98975 0,0 0.98926,0 0.98926,0 0,0 0,0.98975 0,0.98975 0,0 0.99023,0 0.99023,0 0,0 0,0.99023 0,0.99023 0,0 0.99024,0 0.99024,0 0,0 0,-7.91992 0,-7.91992 0,0 -0.99024,0 -0.99024,0 0,0 0,-2.97021 0,-2.97021 0,0 -0.99023,0 -0.99023,0 0,0 0,-0.98975 0,-0.98975 0,0 -0.98926,0 -0.98926,0 0,0 0,-0.99023 0,-0.99023 0,0 -1.98047,0 -1.98047,0 0,0 0,-0.98975 0,-0.98975 0,0 -3.95996,0 -3.95996,0 0,0 0,0.98975 0,0.98975 0,0 -1.97949,0 -1.97949,0 0,0 0,0.99023 0,0.99023 0,0 -0.99024,0 -0.99024,0 0,0 0,0.98975 0,0.98975 0,0 -0.99023,0 -0.99023,0 0,0 0,2.97021 0,2.97021 0,0 -0.99024,0 -0.99024,0 0,0 0,7.91992 0,7.91992 z" /><path
         id="path48"
         style="fill:#ffffff;fill-opacity:1;fill-rule:nonzero;stroke:none"
         d="m 272.24902,-475.18994 c 0,0 0.99024,0 0.99024,0 0,0 0,0.99023 0,0.99023 0,0 1.97949,0 1.97949,0 0,0 0,-0.99023 0,-0.99023 0,0 0.99023,0 0.99023,0 0,0 0,-2.96973 0,-2.96973 0,0 -0.99023,0 -0.99023,0 0,0 0,-0.99023 0,-0.99023 0,0 -1.97949,0 -1.97949,0 0,0 0,0.99023 0,0.99023 0,0 -0.99024,0 -0.99024,0 0,0 0,2.96973 0,2.96973 z" /><path
         id="path50"
         style="fill:#ffffff;fill-opacity:1;fill-rule:nonzero;stroke:none"
         d="m 279.17871,-474.19971 c 0,0 1.98047,0 1.98047,0 0,0 0,-0.99023 0,-0.99023 0,0 0.98926,0 0.98926,0 0,0 0,-2.96973 0,-2.96973 0,0 -0.98926,0 -0.98926,0 0,0 0,-0.99023 0,-0.99023 0,0 -1.98047,0 -1.98047,0 0,0 0,0.99023 0,0.99023 0,0 -0.99023,0 -0.99023,0 0,0 0,2.96973 0,2.96973 0,0 0.99023,0 0.99023,0 0,0 0,0.99023 0,0.99023 z" /><path
         id="path52"
         style="fill:#0a50ff;fill-opacity:1;fill-rule:nonzero;stroke:none"
         d="m 273.23926,-479.1499 c 0,0 1.97949,0 1.97949,0 0,0 0,1.97998 0,1.97998 0,0 -1.97949,0 -1.97949,0 0,0 0,-1.97998 0,-1.97998 z" /><path
         id="path54"
         style="fill:#0a50ff;fill-opacity:1;fill-rule:nonzero;stroke:none"
         d="m 279.17871,-479.1499 c 0,0 1.98047,0 1.98047,0 0,0 0,1.97998 0,1.97998 0,0 -1.98047,0 -1.98047,0 0,0 0,-1.97998 0,-1.97998 z" /><path
         id="path56"
         style="fill:#ff1a00;fill-opacity:1;fill-rule:nonzero;stroke:none"
         d="m 270.26953,-395 c 0,0 0.99024,0 0.99024,0 0,0 0,-0.99023 0,-0.99023 0,0 0.98974,0 0.98974,0 0,0 0,-0.99024 0,-0.99024 0,0 0.99024,0 0.99024,0 0,0 0,0.99024 0,0.99024 0,0 0.98974,0 0.98974,0 0,0 0,0.99023 0,0.99023 0,0 1.97998,0 1.97998,0 0,0 0,-1.98047 0,-1.98047 0,0 1.97998,0 1.97998,0 0,0 0,1.98047 0,1.98047 0,0 1.97998,0 1.97998,0 0,0 0,-0.99023 0,-0.99023 0,0 0.99024,0 0.99024,0 0,0 0,-0.99024 0,-0.99024 0,0 0.98974,0 0.98974,0 0,0 0,0.99024 0,0.99024 0,0 0.99024,0 0.99024,0 0,0 0,0.99023 0,0.99023 0,0 0.98974,0 0.98974,0 0,0 0,-7.91992 0,-7.91992 0,0 -0.98974,0 -0.98974,0 0,0 0,-2.96973 0,-2.96973 0,0 -0.99024,0 -0.99024,0 0,0 0,-0.99023 0,-0.99023 0,0 -0.98974,0 -0.98974,0 0,0 0,-0.98975 0,-0.98975 0,0 -1.97998,0 -1.97998,0 0,0 0,-0.99023 0,-0.99023 0,0 -3.95996,0 -3.95996,0 0,0 0,0.99023 0,0.99023 0,0 -1.97998,0 -1.97998,0 0,0 0,0.98975 0,0.98975 0,0 -0.99024,0 -0.99024,0 0,0 0,0.99023 0,0.99023 0,0 -0.98974,0 -0.98974,0 0,0 0,2.96973 0,2.96973 0,0 -0.99024,0 -0.99024,0 0,0 0,7.91992 0,7.91992 z" /><path
         id="path58"
         style="fill:#ffffff;fill-opacity:1;fill-rule:nonzero;stroke:none"
         d="m 273.23975,-404.8999 c 0,0 1.97998,0 1.97998,0 0,0 0,0.99023 0,0.99023 0,0 0.98974,0 0.98974,0 0,0 0,2.96973 0,2.96973 0,0 -0.98974,0 -0.98974,0 0,0 0,0.99023 0,0.99023 0,0 -1.97998,0 -1.97998,0 0,0 0,-0.99023 0,-0.99023 0,0 -0.99024,0 -0.99024,0 0,0 0,-2.96973 0,-2.96973 0,0 0.99024,0 0.99024,0 0,0 0,-0.99023 0,-0.99023 z" /><path
         id="path60"
         style="fill:#ffffff;fill-opacity:1;fill-rule:nonzero;stroke:none"
         d="m 279.17969,-404.8999 c 0,0 1.97998,0 1.97998,0 0,0 0,0.99023 0,0.99023 0,0 0.98974,0 0.98974,0 0,0 0,2.96973 0,2.96973 0,0 -0.98974,0 -0.98974,0 0,0 0,0.99023 0,0.99023 0,0 -1.97998,0 -1.97998,0 0,0 0,-0.99023 0,-0.99023 0,0 -0.99024,0 -0.99024,0 0,0 0,-2.96973 0,-2.96973 0,0 0.99024,0 0.99024,0 0,0 0,-0.99023 0,-0.99023 z" /><path
         id="path62"
         style="fill:#0a50ff;fill-opacity:1;fill-rule:nonzero;stroke:none"
         d="m 273.23975,-401.92969 c 0,0 1.97998,0 1.97998,0 0,0 0,1.97998 0,1.97998 0,0 -1.97998,0 -1.97998,0 0,0 0,-1.97998 0,-1.97998 z" /><path
         id="path64"
         style="fill:#0a50ff;fill-opacity:1;fill-rule:nonzero;stroke:none"
         d="m 279.17969,-401.92969 c 0,0 1.97998,0 1.97998,0 0,0 0,1.97998 0,1.97998 0,0 -1.97998,0 -1.97998,0 0,0 0,-1.97998 0,-1.97998 z" /><path
         id="path66"
         style="fill:#ff1a00;fill-opacity:1;fill-rule:nonzero;stroke:none"
         d="m 270.26953,-418.75977 c 0,0 0.99024,0 0.99024,0 0,0 0,-0.99023 0,-0.99023 0,0 0.98974,0 0.98974,0 0,0 0,-0.98975 0,-0.98975 0,0 0.99024,0 0.99024,0 0,0 0,0.98975 0,0.98975 0,0 0.98974,0 0.98974,0 0,0 0,0.99023 0,0.99023 0,0 1.97998,0 1.97998,0 0,0 0,-1.97998 0,-1.97998 0,0 1.97998,0 1.97998,0 0,0 0,1.97998 0,1.97998 0,0 1.97998,0 1.97998,0 0,0 0,-0.99023 0,-0.99023 0,0 0.99024,0 0.99024,0 0,0 0,-0.98975 0,-0.98975 0,0 0.98974,0 0.98974,0 0,0 0,0.98975 0,0.98975 0,0 0.99024,0 0.99024,0 0,0 0,0.99023 0,0.99023 0,0 0.98974,0 0.98974,0 0,0 0,-7.91992 0,-7.91992 0,0 -0.98974,0 -0.98974,0 0,0 0,-2.96972 0,-2.96972 0,0 -0.99024,0 -0.99024,0 0,0 0,-0.99024 0,-0.99024 0,0 -0.98974,0 -0.98974,0 0,0 0,-0.98974 0,-0.98974 0,0 -1.97998,0 -1.97998,0 0,0 0,-0.99024 0,-0.99024 0,0 -3.95996,0 -3.95996,0 0,0 0,0.99024 0,0.99024 0,0 -1.97998,0 -1.97998,0 0,0 0,0.98974 0,0.98974 0,0 -0.99024,0 -0.99024,0 0,0 0,0.99024 0,0.99024 0,0 -0.98974,0 -0.98974,0 0,0 0,2.96972 0,2.96972 0,0 -0.99024,0 -0.99024,0 0,0 0,7.91992 0,7.91992 z" /><path
         id="path68"
         style="fill:#ffffff;fill-opacity:1;fill-rule:nonzero;stroke:none"
         d="m 272.24951,-429.64941 c 0,0 1.97998,0 1.97998,0 0,0 0,0.99023 0,0.99023 0,0 0.98975,0 0.98975,0 0,0 0,2.96973 0,2.96973 0,0 -0.98975,0 -0.98975,0 0,0 0,0.99023 0,0.99023 0,0 -1.97998,0 -1.97998,0 0,0 0,-0.99023 0,-0.99023 0,0 -0.99023,0 -0.99023,0 0,0 0,-2.96973 0,-2.96973 0,0 0.99023,0 0.99023,0 0,0 0,-0.99023 0,-0.99023 z" /><path
         id="path70"
         style="fill:#ffffff;fill-opacity:1;fill-rule:nonzero;stroke:none"
         d="m 278.18945,-429.64941 c 0,0 1.97998,0 1.97998,0 0,0 0,0.99023 0,0.99023 0,0 0.98975,0 0.98975,0 0,0 0,2.96973 0,2.96973 0,0 -0.98975,0 -0.98975,0 0,0 0,0.99023 0,0.99023 0,0 -1.97998,0 -1.97998,0 0,0 0,-0.99023 0,-0.99023 0,0 -0.99023,0 -0.99023,0 0,0 0,-2.96973 0,-2.96973 0,0 0.99023,0 0.99023,0 0,0 0,-0.99023 0,-0.99023 z" /><path
         id="path72"
         style="fill:#0a50ff;fill-opacity:1;fill-rule:nonzero;stroke:none"
         d="m 271.25928,-427.66943 c 0,0 1.97998,0 1.97998,0 0,0 0,1.97998 0,1.97998 0,0 -1.97998,0 -1.97998,0 0,0 0,-1.97998 0,-1.97998 z" /><path
         id="path74"
         style="fill:#0a50ff;fill-opacity:1;fill-rule:nonzero;stroke:none"
         d="m 277.19922,-427.66943 c 0,0 1.97998,0 1.97998,0 0,0 0,1.97998 0,1.97998 0,0 -1.97998,0 -1.97998,0 0,0 0,-1.97998 0,-1.97998 z" /><path
         id="path76"
         style="fill:#ffb847;fill-opacity:1;fill-rule:nonzero;stroke:none"
         d="m 245.52002,-442.52051 c 0,0 0.99023,0 0.99023,0 0,0 0,-0.99023 0,-0.99023 0,0 0.99024,0 0.99024,0 0,0 0,-0.98975 0,-0.98975 0,0 0.98926,0 0.98926,0 0,0 0,0.98975 0,0.98975 0,0 0.99023,0 0.99023,0 0,0 0,0.99023 0,0.99023 0,0 1.97949,0 1.97949,0 0,0 0,-1.97998 0,-1.97998 0,0 1.98047,0 1.98047,0 0,0 0,1.97998 0,1.97998 0,0 1.97949,0 1.97949,0 0,0 0,-0.99023 0,-0.99023 0,0 0.99024,0 0.99024,0 0,0 0,-0.98975 0,-0.98975 0,0 0.99023,0 0.99023,0 0,0 0,0.98975 0,0.98975 0,0 0.99024,0 0.99024,0 0,0 0,0.99023 0,0.99023 0,0 0.98925,0 0.98925,0 0,0 0,-7.91992 0,-7.91992 0,0 -0.98925,0 -0.98925,0 0,0 0,-2.97021 0,-2.97021 0,0 -0.99024,0 -0.99024,0 0,0 0,-0.98975 0,-0.98975 0,0 -0.99023,0 -0.99023,0 0,0 0,-0.99024 0,-0.99024 0,0 -1.97949,0 -1.97949,0 0,0 0,-0.98974 0,-0.98974 0,0 -3.96094,0 -3.96094,0 0,0 0,0.98974 0,0.98974 0,0 -1.97949,0 -1.97949,0 0,0 0,0.99024 0,0.99024 0,0 -0.98926,0 -0.98926,0 0,0 0,0.98975 0,0.98975 0,0 -0.99024,0 -0.99024,0 0,0 0,2.97021 0,2.97021 0,0 -0.99023,0 -0.99023,0 0,0 0,7.91992 0,7.91992 z" /><path
         id="path78"
         style="fill:#ffffff;fill-opacity:1;fill-rule:nonzero;stroke:none"
         d="m 249.47998,-453.41113 c 0,0 0,0.99023 0,0.99023 0,0 -0.99023,0 -0.99023,0 0,0 0,2.97022 0,2.97022 0,0 0.99023,0 0.99023,0 0,0 0,0.99023 0,0.99023 0,0 1.97949,0 1.97949,0 0,0 0,-0.99023 0,-0.99023 0,0 0.99121,0 0.99121,0 0,0 0,-2.97022 0,-2.97022 0,0 -0.99121,0 -0.99121,0 0,0 0,-0.99023 0,-0.99023 0,0 -1.97949,0 -1.97949,0 z" /><path
         id="path80"
         style="fill:#ffffff;fill-opacity:1;fill-rule:nonzero;stroke:none"
         d="m 255.41943,-448.46045 c 0,0 1.98047,0 1.98047,0 0,0 0,-0.99023 0,-0.99023 0,0 0.99024,0 0.99024,0 0,0 0,-2.97022 0,-2.97022 0,0 -0.99024,0 -0.99024,0 0,0 0,-0.99023 0,-0.99023 0,0 -1.98047,0 -1.98047,0 0,0 0,0.99023 0,0.99023 0,0 -0.98828,0 -0.98828,0 0,0 0,2.97022 0,2.97022 0,0 0.98828,0 0.98828,0 0,0 0,0.99023 0,0.99023 z" /><path
         id="path82"
         style="fill:#0a50ff;fill-opacity:1;fill-rule:nonzero;stroke:none"
         d="m 250.46924,-451.43164 c 0,0 0,1.98096 0,1.98096 0,0 1.98047,0 1.98047,0 0,0 0,-1.98096 0,-1.98096 0,0 -1.98047,0 -1.98047,0 z" /><path
         id="path84"
         style="fill:#0a50ff;fill-opacity:1;fill-rule:nonzero;stroke:none"
         d="m 256.40869,-451.43164 c 0,0 0,1.98096 0,1.98096 0,0 1.98047,0 1.98047,0 0,0 0,-1.98096 0,-1.98096 0,0 -1.98047,0 -1.98047,0 z" /><path
         id="path86"
         style="fill:#ffb847;fill-opacity:1;fill-rule:nonzero;stroke:none"
         d="m 245.51904,-466.27979 c 0,0 0.99024,0 0.99024,0 0,0 0,-0.99023 0,-0.99023 0,0 0.99023,0 0.99023,0 0,0 0,-0.98975 0,-0.98975 0,0 0.99024,0 0.99024,0 0,0 0,0.98975 0,0.98975 0,0 0.98925,0 0.98925,0 0,0 0,0.99023 0,0.99023 0,0 1.98047,0 1.98047,0 0,0 0,-1.97998 0,-1.97998 0,0 1.97949,0 1.97949,0 0,0 0,1.97998 0,1.97998 0,0 1.98047,0 1.98047,0 0,0 0,-0.99023 0,-0.99023 0,0 0.99024,0 0.99024,0 0,0 0,-0.98975 0,-0.98975 0,0 0.98926,0 0.98926,0 0,0 0,0.98975 0,0.98975 0,0 0.99023,0 0.99023,0 0,0 0,0.99023 0,0.99023 0,0 0.99023,0 0.99023,0 0,0 0,-7.91992 0,-7.91992 0,0 -0.99023,0 -0.99023,0 0,0 0,-2.97021 0,-2.97021 0,0 -0.99023,0 -0.99023,0 0,0 0,-0.98975 0,-0.98975 0,0 -0.98926,0 -0.98926,0 0,0 0,-0.99023 0,-0.99023 0,0 -1.98047,0 -1.98047,0 0,0 0,-0.98975 0,-0.98975 0,0 -3.95996,0 -3.95996,0 0,0 0,0.98975 0,0.98975 0,0 -1.97949,0 -1.97949,0 0,0 0,0.99023 0,0.99023 0,0 -0.99024,0 -0.99024,0 0,0 0,0.98975 0,0.98975 0,0 -0.99023,0 -0.99023,0 0,0 0,2.97021 0,2.97021 0,0 -0.99024,0 -0.99024,0 0,0 0,7.91992 0,7.91992 z" /><path
         id="path88"
         style="fill:#ffffff;fill-opacity:1;fill-rule:nonzero;stroke:none"
         d="m 247.49951,-475.18994 c 0,0 0.99024,0 0.99024,0 0,0 0,0.99023 0,0.99023 0,0 1.97949,0 1.97949,0 0,0 0,-0.99023 0,-0.99023 0,0 0.99023,0 0.99023,0 0,0 0,-2.96973 0,-2.96973 0,0 -0.99023,0 -0.99023,0 0,0 0,-0.99023 0,-0.99023 0,0 -1.97949,0 -1.97949,0 0,0 0,0.99023 0,0.99023 0,0 -0.99024,0 -0.99024,0 0,0 0,2.96973 0,2.96973 z" /><path
         id="path90"
         style="fill:#ffffff;fill-opacity:1;fill-rule:nonzero;stroke:none"
         d="m 254.4292,-474.19971 c 0,0 1.98047,0 1.98047,0 0,0 0,-0.99023 0,-0.99023 0,0 0.98926,0 0.98926,0 0,0 0,-2.96973 0,-2.96973 0,0 -0.98926,0 -0.98926,0 0,0 0,-0.99023 0,-0.99023 0,0 -1.98047,0 -1.98047,0 0,0 0,0.99023 0,0.99023 0,0 -0.99024,0 -0.99024,0 0,0 0,2.96973 0,2.96973 0,0 0.99024,0 0.99024,0 0,0 0,0.99023 0,0.99023 z" /><path
         id="path92"
         style="fill:#0a50ff;fill-opacity:1;fill-rule:nonzero;stroke:none"
         d="m 248.48975,-479.1499 c 0,0 1.97949,0 1.97949,0 0,0 0,1.97998 0,1.97998 0,0 -1.97949,0 -1.97949,0 0,0 0,-1.97998 0,-1.97998 z" /><path
         id="path94"
         style="fill:#0a50ff;fill-opacity:1;fill-rule:nonzero;stroke:none"
         d="m 254.4292,-479.1499 c 0,0 1.98047,0 1.98047,0 0,0 0,1.97998 0,1.97998 0,0 -1.98047,0 -1.98047,0 0,0 0,-1.97998 0,-1.97998 z" /><path
         id="path96"
         style="fill:#ffb847;fill-opacity:1;fill-rule:nonzero;stroke:none"
         d="m 245.52002,-395 c 0,0 0.99023,0 0.99023,0 0,0 0,-0.99023 0,-0.99023 0,0 0.98975,0 0.98975,0 0,0 0,-0.99024 0,-0.99024 0,0 0.99023,0 0.99023,0 0,0 0,0.99024 0,0.99024 0,0 0.98975,0 0.98975,0 0,0 0,0.99023 0,0.99023 0,0 1.97998,0 1.97998,0 0,0 0,-1.98047 0,-1.98047 0,0 1.97998,0 1.97998,0 0,0 0,1.98047 0,1.98047 0,0 1.97998,0 1.97998,0 0,0 0,-0.99023 0,-0.99023 0,0 0.99024,0 0.99024,0 0,0 0,-0.99024 0,-0.99024 0,0 0.98974,0 0.98974,0 0,0 0,0.99024 0,0.99024 0,0 0.99024,0 0.99024,0 0,0 0,0.99023 0,0.99023 0,0 0.98974,0 0.98974,0 0,0 0,-7.91992 0,-7.91992 0,0 -0.98974,0 -0.98974,0 0,0 0,-2.96973 0,-2.96973 0,0 -0.99024,0 -0.99024,0 0,0 0,-0.99023 0,-0.99023 0,0 -0.98974,0 -0.98974,0 0,0 0,-0.98975 0,-0.98975 0,0 -1.97998,0 -1.97998,0 0,0 0,-0.99023 0,-0.99023 0,0 -3.95997,0 -3.95997,0 0,0 0,0.99023 0,0.99023 0,0 -1.97998,0 -1.97998,0 0,0 0,0.98975 0,0.98975 0,0 -0.99023,0 -0.99023,0 0,0 0,0.99023 0,0.99023 0,0 -0.98975,0 -0.98975,0 0,0 0,2.96973 0,2.96973 0,0 -0.99023,0 -0.99023,0 0,0 0,7.91992 0,7.91992 z" /><path
         id="path98"
         style="fill:#ffffff;fill-opacity:1;fill-rule:nonzero;stroke:none"
         d="m 248.49023,-404.8999 c 0,0 1.97998,0 1.97998,0 0,0 0,0.99023 0,0.99023 0,0 0.98975,0 0.98975,0 0,0 0,2.96973 0,2.96973 0,0 -0.98975,0 -0.98975,0 0,0 0,0.99023 0,0.99023 0,0 -1.97998,0 -1.97998,0 0,0 0,-0.99023 0,-0.99023 0,0 -0.99023,0 -0.99023,0 0,0 0,-2.96973 0,-2.96973 0,0 0.99023,0 0.99023,0 0,0 0,-0.99023 0,-0.99023 z" /><path
         id="path100"
         style="fill:#ffffff;fill-opacity:1;fill-rule:nonzero;stroke:none"
         d="m 254.43018,-404.8999 c 0,0 1.97998,0 1.97998,0 0,0 0,0.99023 0,0.99023 0,0 0.98974,0 0.98974,0 0,0 0,2.96973 0,2.96973 0,0 -0.98974,0 -0.98974,0 0,0 0,0.99023 0,0.99023 0,0 -1.97998,0 -1.97998,0 0,0 0,-0.99023 0,-0.99023 0,0 -0.99024,0 -0.99024,0 0,0 0,-2.96973 0,-2.96973 0,0 0.99024,0 0.99024,0 0,0 0,-0.99023 0,-0.99023 z" /><path
         id="path102"
         style="fill:#0a50ff;fill-opacity:1;fill-rule:nonzero;stroke:none"
         d="m 248.49023,-401.92969 c 0,0 1.97998,0 1.97998,0 0,0 0,1.97998 0,1.97998 0,0 -1.97998,0 -1.97998,0 0,0 0,-1.97998 0,-1.97998 z" /><path
         id="path104"
         style="fill:#0a50ff;fill-opacity:1;fill-rule:nonzero;stroke:none"
         d="m 254.43018,-401.92969 c 0,0 1.97998,0 1.97998,0 0,0 0,1.97998 0,1.97998 0,0 -1.97998,0 -1.97998,0 0,0 0,-1.97998 0,-1.97998 z" /><path
         id="path106"
         style="fill:#ffb847;fill-opacity:1;fill-rule:nonzero;stroke:none"
         d="m 245.52002,-418.75977 c 0,0 0.99023,0 0.99023,0 0,0 0,-0.99023 0,-0.99023 0,0 0.98975,0 0.98975,0 0,0 0,-0.98975 0,-0.98975 0,0 0.99023,0 0.99023,0 0,0 0,0.98975 0,0.98975 0,0 0.98975,0 0.98975,0 0,0 0,0.99023 0,0.99023 0,0 1.97998,0 1.97998,0 0,0 0,-1.97998 0,-1.97998 0,0 1.97998,0 1.97998,0 0,0 0,1.97998 0,1.97998 0,0 1.97998,0 1.97998,0 0,0 0,-0.99023 0,-0.99023 0,0 0.99024,0 0.99024,0 0,0 0,-0.98975 0,-0.98975 0,0 0.98974,0 0.98974,0 0,0 0,0.98975 0,0.98975 0,0 0.99024,0 0.99024,0 0,0 0,0.99023 0,0.99023 0,0 0.98974,0 0.98974,0 0,0 0,-7.91992 0,-7.91992 0,0 -0.98974,0 -0.98974,0 0,0 0,-2.96972 0,-2.96972 0,0 -0.99024,0 -0.99024,0 0,0 0,-0.99024 0,-0.99024 0,0 -0.98974,0 -0.98974,0 0,0 0,-0.98974 0,-0.98974 0,0 -1.97998,0 -1.97998,0 0,0 0,-0.99024 0,-0.99024 0,0 -3.95997,0 -3.95997,0 0,0 0,0.99024 0,0.99024 0,0 -1.97998,0 -1.97998,0 0,0 0,0.98974 0,0.98974 0,0 -0.99023,0 -0.99023,0 0,0 0,0.99024 0,0.99024 0,0 -0.98975,0 -0.98975,0 0,0 0,2.96972 0,2.96972 0,0 -0.99023,0 -0.99023,0 0,0 0,7.91992 0,7.91992 z" /><path
         id="path108"
         style="fill:#ffffff;fill-opacity:1;fill-rule:nonzero;stroke:none"
         d="m 247.5,-429.64941 c 0,0 1.97998,0 1.97998,0 0,0 0,0.99023 0,0.99023 0,0 0.98975,0 0.98975,0 0,0 0,2.96973 0,2.96973 0,0 -0.98975,0 -0.98975,0 0,0 0,0.99023 0,0.99023 0,0 -1.97998,0 -1.97998,0 0,0 0,-0.99023 0,-0.99023 0,0 -0.99023,0 -0.99023,0 0,0 0,-2.96973 0,-2.96973 0,0 0.99023,0 0.99023,0 0,0 0,-0.99023 0,-0.99023 z" /><path
         id="path110"
         style="fill:#ffffff;fill-opacity:1;fill-rule:nonzero;stroke:none"
         d="m 253.43994,-429.64941 c 0,0 1.97998,0 1.97998,0 0,0 0,0.99023 0,0.99023 0,0 0.98975,0 0.98975,0 0,0 0,2.96973 0,2.96973 0,0 -0.98975,0 -0.98975,0 0,0 0,0.99023 0,0.99023 0,0 -1.97998,0 -1.97998,0 0,0 0,-0.99023 0,-0.99023 0,0 -0.99023,0 -0.99023,0 0,0 0,-2.96973 0,-2.96973 0,0 0.99023,0 0.99023,0 0,0 0,-0.99023 0,-0.99023 z" /><path
         id="path112"
         style="fill:#0a50ff;fill-opacity:1;fill-rule:nonzero;stroke:none"
         d="m 246.50977,-427.66943 c 0,0 1.97998,0 1.97998,0 0,0 0,1.97998 0,1.97998 0,0 -1.97998,0 -1.97998,0 0,0 0,-1.97998 0,-1.97998 z" /><path
         id="path114"
         style="fill:#0a50ff;fill-opacity:1;fill-rule:nonzero;stroke:none"
         d="m 252.44971,-427.66943 c 0,0 1.97998,0 1.97998,0 0,0 0,1.97998 0,1.97998 0,0 -1.97998,0 -1.97998,0 0,0 0,-1.97998 0,-1.97998 z" /><path
         id="path116"
         style="fill:#00ffde;fill-opacity:1;fill-rule:nonzero;stroke:none"
         d="m 316.80078,-442.521 c 0,0 0.99024,0 0.99024,0 0,0 0,-0.99023 0,-0.99023 0,0 0.99023,0 0.99023,0 0,0 0,-0.98975 0,-0.98975 0,0 0.98828,0 0.98828,0 0,0 0,0.98975 0,0.98975 0,0 0.99024,0 0.99024,0 0,0 0,0.99023 0,0.99023 0,0 1.97949,0 1.97949,0 0,0 0,-1.97998 0,-1.97998 0,0 1.98047,0 1.98047,0 0,0 0,1.97998 0,1.97998 0,0 1.98047,0 1.98047,0 0,0 0,-0.99023 0,-0.99023 0,0 0.99023,0 0.99023,0 0,0 0,-0.98975 0,-0.98975 0,0 0.99023,0 0.99023,0 0,0 0,0.98975 0,0.98975 0,0 0.99024,0 0.99024,0 0,0 0,0.99023 0,0.99023 0,0 0.98828,0 0.98828,0 0,0 0,-7.91992 0,-7.91992 0,0 -0.98828,0 -0.98828,0 0,0 0,-2.97021 0,-2.97021 0,0 -0.99024,0 -0.99024,0 0,0 0,-0.98975 0,-0.98975 0,0 -0.99023,0 -0.99023,0 0,0 0,-0.99023 0,-0.99023 0,0 -1.98047,0 -1.98047,0 0,0 0,-0.98975 0,-0.98975 0,0 -3.95996,0 -3.95996,0 0,0 0,0.98975 0,0.98975 0,0 -1.98047,0 -1.98047,0 0,0 0,0.99023 0,0.99023 0,0 -0.98828,0 -0.98828,0 0,0 0,0.98975 0,0.98975 0,0 -0.99023,0 -0.99023,0 0,0 0,2.97021 0,2.97021 0,0 -0.99024,0 -0.99024,0 0,0 0,7.91992 0,7.91992 z" /><path
         id="path118"
         style="fill:#ffffff;fill-opacity:1;fill-rule:nonzero;stroke:none"
         d="m 320.75977,-453.41162 c 0,0 0,0.99023 0,0.99023 0,0 -0.99024,0 -0.99024,0 0,0 0,2.97022 0,2.97022 0,0 0.99024,0 0.99024,0 0,0 0,0.99023 0,0.99023 0,0 1.97949,0 1.97949,0 0,0 0,-0.99023 0,-0.99023 0,0 0.99219,0 0.99219,0 0,0 0,-2.97022 0,-2.97022 0,0 -0.99219,0 -0.99219,0 0,0 0,-0.99023 0,-0.99023 0,0 -1.97949,0 -1.97949,0 z" /><path
         id="path120"
         style="fill:#ffffff;fill-opacity:1;fill-rule:nonzero;stroke:none"
         d="m 326.7002,-448.46094 c 0,0 1.98046,0 1.98046,0 0,0 0,-0.99023 0,-0.99023 0,0 0.99024,0 0.99024,0 0,0 0,-2.97022 0,-2.97022 0,0 -0.99024,0 -0.99024,0 0,0 0,-0.99023 0,-0.99023 0,0 -1.98046,0 -1.98046,0 0,0 0,0.99023 0,0.99023 0,0 -0.98829,0 -0.98829,0 0,0 0,2.97022 0,2.97022 0,0 0.98829,0 0.98829,0 0,0 0,0.99023 0,0.99023 z" /><path
         id="path122"
         style="fill:#0a50ff;fill-opacity:1;fill-rule:nonzero;stroke:none"
         d="m 321.75,-451.43213 c 0,0 0,1.98096 0,1.98096 0,0 1.97949,0 1.97949,0 0,0 0,-1.98096 0,-1.98096 0,0 -1.97949,0 -1.97949,0 z" /><path
         id="path124"
         style="fill:#0a50ff;fill-opacity:1;fill-rule:nonzero;stroke:none"
         d="m 327.68848,-451.43213 c 0,0 0,1.98096 0,1.98096 0,0 1.98047,0 1.98047,0 0,0 0,-1.98096 0,-1.98096 0,0 -1.98047,0 -1.98047,0 z" /><path
         id="path126"
         style="fill:#00ffde;fill-opacity:1;fill-rule:nonzero;stroke:none"
         d="m 316.79883,-466.28027 c 0,0 0.99023,0 0.99023,0 0,0 0,-0.99024 0,-0.99024 0,0 0.99024,0 0.99024,0 0,0 0,-0.98974 0,-0.98974 0,0 0.99023,0 0.99023,0 0,0 0,0.98974 0,0.98974 0,0 0.99024,0 0.99024,0 0,0 0,0.99024 0,0.99024 0,0 1.98046,0 1.98046,0 0,0 0,-1.97998 0,-1.97998 0,0 1.97852,0 1.97852,0 0,0 0,1.97998 0,1.97998 0,0 1.98047,0 1.98047,0 0,0 0,-0.99024 0,-0.99024 0,0 0.99023,0 0.99023,0 0,0 0,-0.98974 0,-0.98974 0,0 0.99024,0 0.99024,0 0,0 0,0.98974 0,0.98974 0,0 0.99023,0 0.99023,0 0,0 0,0.99024 0,0.99024 0,0 0.99024,0 0.99024,0 0,0 0,-7.91993 0,-7.91993 0,0 -0.99024,0 -0.99024,0 0,0 0,-2.97021 0,-2.97021 0,0 -0.99023,0 -0.99023,0 0,0 0,-0.98975 0,-0.98975 0,0 -0.99024,0 -0.99024,0 0,0 0,-0.99023 0,-0.99023 0,0 -1.98047,0 -1.98047,0 0,0 0,-0.98975 0,-0.98975 0,0 -3.95898,0 -3.95898,0 0,0 0,0.98975 0,0.98975 0,0 -1.98047,0 -1.98047,0 0,0 0,0.99023 0,0.99023 0,0 -0.99023,0 -0.99023,0 0,0 0,0.98975 0,0.98975 0,0 -0.99024,0 -0.99024,0 0,0 0,2.97021 0,2.97021 0,0 -0.99023,0 -0.99023,0 0,0 0,7.91993 0,7.91993 z" /><path
         id="path128"
         style="fill:#ffffff;fill-opacity:1;fill-rule:nonzero;stroke:none"
         d="m 318.7793,-475.19043 c 0,0 0.99023,0 0.99023,0 0,0 0,0.99023 0,0.99023 0,0 1.98047,0 1.98047,0 0,0 0,-0.99023 0,-0.99023 0,0 0.99023,0 0.99023,0 0,0 0,-2.96973 0,-2.96973 0,0 -0.99023,0 -0.99023,0 0,0 0,-0.99023 0,-0.99023 0,0 -1.98047,0 -1.98047,0 0,0 0,0.99023 0,0.99023 0,0 -0.99023,0 -0.99023,0 0,0 0,2.96973 0,2.96973 z" /><path
         id="path130"
         style="fill:#ffffff;fill-opacity:1;fill-rule:nonzero;stroke:none"
         d="m 325.70898,-474.2002 c 0,0 1.98047,0 1.98047,0 0,0 0,-0.99023 0,-0.99023 0,0 0.99024,0 0.99024,0 0,0 0,-2.96973 0,-2.96973 0,0 -0.99024,0 -0.99024,0 0,0 0,-0.99023 0,-0.99023 0,0 -1.98047,0 -1.98047,0 0,0 0,0.99023 0,0.99023 0,0 -0.99023,0 -0.99023,0 0,0 0,2.96973 0,2.96973 0,0 0.99023,0 0.99023,0 0,0 0,0.99023 0,0.99023 z" /><path
         id="path132"
         style="fill:#0a50ff;fill-opacity:1;fill-rule:nonzero;stroke:none"
         d="m 319.76953,-479.15039 c 0,0 1.98047,0 1.98047,0 0,0 0,1.97998 0,1.97998 0,0 -1.98047,0 -1.98047,0 0,0 0,-1.97998 0,-1.97998 z" /><path
         id="path134"
         style="fill:#0a50ff;fill-opacity:1;fill-rule:nonzero;stroke:none"
         d="m 325.70898,-479.15039 c 0,0 1.98047,0 1.98047,0 0,0 0,1.97998 0,1.97998 0,0 -1.98047,0 -1.98047,0 0,0 0,-1.97998 0,-1.97998 z" /><path
         id="path136"
         style="fill:#00ffde;fill-opacity:1;fill-rule:nonzero;stroke:none"
         d="m 316.80078,-395.00049 c 0,0 0.99024,0 0.99024,0 0,0 0,-0.99023 0,-0.99023 0,0 0.98925,0 0.98925,0 0,0 0,-0.99024 0,-0.99024 0,0 0.99024,0 0.99024,0 0,0 0,0.99024 0,0.99024 0,0 0.98926,0 0.98926,0 0,0 0,0.99023 0,0.99023 0,0 1.98046,0 1.98046,0 0,0 0,-1.98047 0,-1.98047 0,0 1.9795,0 1.9795,0 0,0 0,1.98047 0,1.98047 0,0 1.98047,0 1.98047,0 0,0 0,-0.99023 0,-0.99023 0,0 0.99023,0 0.99023,0 0,0 0,-0.99024 0,-0.99024 0,0 0.99023,0 0.99023,0 0,0 0,0.99024 0,0.99024 0,0 0.99024,0 0.99024,0 0,0 0,0.99023 0,0.99023 0,0 0.98926,0 0.98926,0 0,0 0,-7.91992 0,-7.91992 0,0 -0.98926,0 -0.98926,0 0,0 0,-2.96973 0,-2.96973 0,0 -0.99024,0 -0.99024,0 0,0 0,-0.99023 0,-0.99023 0,0 -0.99023,0 -0.99023,0 0,0 0,-0.98975 0,-0.98975 0,0 -1.98047,0 -1.98047,0 0,0 0,-0.99023 0,-0.99023 0,0 -3.95996,0 -3.95996,0 0,0 0,0.99023 0,0.99023 0,0 -1.97949,0 -1.97949,0 0,0 0,0.98975 0,0.98975 0,0 -0.99024,0 -0.99024,0 0,0 0,0.99023 0,0.99023 0,0 -0.98925,0 -0.98925,0 0,0 0,2.96973 0,2.96973 0,0 -0.99024,0 -0.99024,0 0,0 0,7.91992 0,7.91992 z" /><path
         id="path138"
         style="fill:#ffffff;fill-opacity:1;fill-rule:nonzero;stroke:none"
         d="m 319.77051,-404.90039 c 0,0 1.97949,0 1.97949,0 0,0 0,0.99023 0,0.99023 0,0 0.99023,0 0.99023,0 0,0 0,2.96973 0,2.96973 0,0 -0.99023,0 -0.99023,0 0,0 0,0.99023 0,0.99023 0,0 -1.97949,0 -1.97949,0 0,0 0,-0.99023 0,-0.99023 0,0 -0.99024,0 -0.99024,0 0,0 0,-2.96973 0,-2.96973 0,0 0.99024,0 0.99024,0 0,0 0,-0.99023 0,-0.99023 z" /><path
         id="path140"
         style="fill:#ffffff;fill-opacity:1;fill-rule:nonzero;stroke:none"
         d="m 325.70996,-404.90039 c 0,0 1.98047,0 1.98047,0 0,0 0,0.99023 0,0.99023 0,0 0.99023,0 0.99023,0 0,0 0,2.96973 0,2.96973 0,0 -0.99023,0 -0.99023,0 0,0 0,0.99023 0,0.99023 0,0 -1.98047,0 -1.98047,0 0,0 0,-0.99023 0,-0.99023 0,0 -0.99023,0 -0.99023,0 0,0 0,-2.96973 0,-2.96973 0,0 0.99023,0 0.99023,0 0,0 0,-0.99023 0,-0.99023 z" /><path
         id="path142"
         style="fill:#0a50ff;fill-opacity:1;fill-rule:nonzero;stroke:none"
         d="m 319.77051,-401.93018 c 0,0 1.97949,0 1.97949,0 0,0 0,1.97998 0,1.97998 0,0 -1.97949,0 -1.97949,0 0,0 0,-1.97998 0,-1.97998 z" /><path
         id="path144"
         style="fill:#0a50ff;fill-opacity:1;fill-rule:nonzero;stroke:none"
         d="m 325.70996,-401.93018 c 0,0 1.98047,0 1.98047,0 0,0 0,1.97998 0,1.97998 0,0 -1.98047,0 -1.98047,0 0,0 0,-1.97998 0,-1.97998 z" /><path
         id="path146"
         style="fill:#00ffde;fill-opacity:1;fill-rule:nonzero;stroke:none"
         d="m 316.80078,-418.76025 c 0,0 0.99024,0 0.99024,0 0,0 0,-0.99024 0,-0.99024 0,0 0.98925,0 0.98925,0 0,0 0,-0.98974 0,-0.98974 0,0 0.99024,0 0.99024,0 0,0 0,0.98974 0,0.98974 0,0 0.98926,0 0.98926,0 0,0 0,0.99024 0,0.99024 0,0 1.98046,0 1.98046,0 0,0 0,-1.97998 0,-1.97998 0,0 1.9795,0 1.9795,0 0,0 0,1.97998 0,1.97998 0,0 1.98047,0 1.98047,0 0,0 0,-0.99024 0,-0.99024 0,0 0.99023,0 0.99023,0 0,0 0,-0.98974 0,-0.98974 0,0 0.99023,0 0.99023,0 0,0 0,0.98974 0,0.98974 0,0 0.99024,0 0.99024,0 0,0 0,0.99024 0,0.99024 0,0 0.98926,0 0.98926,0 0,0 0,-7.91993 0,-7.91993 0,0 -0.98926,0 -0.98926,0 0,0 0,-2.96972 0,-2.96972 0,0 -0.99024,0 -0.99024,0 0,0 0,-0.99024 0,-0.99024 0,0 -0.99023,0 -0.99023,0 0,0 0,-0.98974 0,-0.98974 0,0 -1.98047,0 -1.98047,0 0,0 0,-0.99024 0,-0.99024 0,0 -3.95996,0 -3.95996,0 0,0 0,0.99024 0,0.99024 0,0 -1.97949,0 -1.97949,0 0,0 0,0.98974 0,0.98974 0,0 -0.99024,0 -0.99024,0 0,0 0,0.99024 0,0.99024 0,0 -0.98925,0 -0.98925,0 0,0 0,2.96972 0,2.96972 0,0 -0.99024,0 -0.99024,0 0,0 0,7.91993 0,7.91993 z" /><path
         id="path148"
         style="fill:#ffffff;fill-opacity:1;fill-rule:nonzero;stroke:none"
         d="m 318.78027,-429.6499 c 0,0 1.9795,0 1.9795,0 0,0 0,0.99023 0,0.99023 0,0 0.99023,0 0.99023,0 0,0 0,2.96973 0,2.96973 0,0 -0.99023,0 -0.99023,0 0,0 0,0.99023 0,0.99023 0,0 -1.9795,0 -1.9795,0 0,0 0,-0.99023 0,-0.99023 0,0 -0.99023,0 -0.99023,0 0,0 0,-2.96973 0,-2.96973 0,0 0.99023,0 0.99023,0 0,0 0,-0.99023 0,-0.99023 z" /><path
         id="path150"
         style="fill:#ffffff;fill-opacity:1;fill-rule:nonzero;stroke:none"
         d="m 324.71973,-429.6499 c 0,0 1.98047,0 1.98047,0 0,0 0,0.99023 0,0.99023 0,0 0.99023,0 0.99023,0 0,0 0,2.96973 0,2.96973 0,0 -0.99023,0 -0.99023,0 0,0 0,0.99023 0,0.99023 0,0 -1.98047,0 -1.98047,0 0,0 0,-0.99023 0,-0.99023 0,0 -0.99024,0 -0.99024,0 0,0 0,-2.96973 0,-2.96973 0,0 0.99024,0 0.99024,0 0,0 0,-0.99023 0,-0.99023 z" /><path
         id="path152"
         style="fill:#0a50ff;fill-opacity:1;fill-rule:nonzero;stroke:none"
         d="m 317.79004,-427.66992 c 0,0 1.97949,0 1.97949,0 0,0 0,1.97998 0,1.97998 0,0 -1.97949,0 -1.97949,0 0,0 0,-1.97998 0,-1.97998 z" /><path
         id="path154"
         style="fill:#0a50ff;fill-opacity:1;fill-rule:nonzero;stroke:none"
         d="m 323.72949,-427.66992 c 0,0 1.98047,0 1.98047,0 0,0 0,1.97998 0,1.97998 0,0 -1.98047,0 -1.98047,0 0,0 0,-1.97998 0,-1.97998 z" /><path
         id="path156"
         style="fill:#ffb8de;fill-opacity:1;fill-rule:nonzero;stroke:none"
         d="m 293.04102,-442.521 c 0,0 0.99023,0 0.99023,0 0,0 0,-0.99023 0,-0.99023 0,0 0.99023,0 0.99023,0 0,0 0,-0.98975 0,-0.98975 0,0 0.98926,0 0.98926,0 0,0 0,0.98975 0,0.98975 0,0 0.99024,0 0.99024,0 0,0 0,0.99023 0,0.99023 0,0 1.97949,0 1.97949,0 0,0 0,-1.97998 0,-1.97998 0,0 1.98047,0 1.98047,0 0,0 0,1.97998 0,1.97998 0,0 1.97949,0 1.97949,0 0,0 0,-0.99023 0,-0.99023 0,0 0.98975,0 0.98975,0 0,0 0,-0.98975 0,-0.98975 0,0 0.99072,0 0.99072,0 0,0 0,0.98975 0,0.98975 0,0 0.99023,0 0.99023,0 0,0 0,0.99023 0,0.99023 0,0 0.98975,0 0.98975,0 0,0 0,-7.91992 0,-7.91992 0,0 -0.98975,0 -0.98975,0 0,0 0,-2.97021 0,-2.97021 0,0 -0.99023,0 -0.99023,0 0,0 0,-0.98975 0,-0.98975 0,0 -0.99072,0 -0.99072,0 0,0 0,-0.99023 0,-0.99023 0,0 -1.97901,0 -1.97901,0 0,0 0,-0.98975 0,-0.98975 0,0 -3.96094,0 -3.96094,0 0,0 0,0.98975 0,0.98975 0,0 -1.97949,0 -1.97949,0 0,0 0,0.99023 0,0.99023 0,0 -0.98926,0 -0.98926,0 0,0 0,0.98975 0,0.98975 0,0 -0.99023,0 -0.99023,0 0,0 0,2.97021 0,2.97021 0,0 -0.99023,0 -0.99023,0 0,0 0,7.91992 0,7.91992 z" /><path
         id="path158"
         style="fill:#ffffff;fill-opacity:1;fill-rule:nonzero;stroke:none"
         d="m 297.00098,-453.41162 c 0,0 0,0.99023 0,0.99023 0,0 -0.99024,0 -0.99024,0 0,0 0,2.97022 0,2.97022 0,0 0.99024,0 0.99024,0 0,0 0,0.99023 0,0.99023 0,0 1.97949,0 1.97949,0 0,0 0,-0.99023 0,-0.99023 0,0 0.99121,0 0.99121,0 0,0 0,-2.97022 0,-2.97022 0,0 -0.99121,0 -0.99121,0 0,0 0,-0.99023 0,-0.99023 0,0 -1.97949,0 -1.97949,0 z" /><path
         id="path160"
         style="fill:#ffffff;fill-opacity:1;fill-rule:nonzero;stroke:none"
         d="m 302.94043,-448.46094 c 0,0 1.98047,0 1.98047,0 0,0 0,-0.99023 0,-0.99023 0,0 0.99023,0 0.99023,0 0,0 0,-2.97022 0,-2.97022 0,0 -0.99023,0 -0.99023,0 0,0 0,-0.99023 0,-0.99023 0,0 -1.98047,0 -1.98047,0 0,0 0,0.99023 0,0.99023 0,0 -0.98828,0 -0.98828,0 0,0 0,2.97022 0,2.97022 0,0 0.98828,0 0.98828,0 0,0 0,0.99023 0,0.99023 z" /><path
         id="path162"
         style="fill:#0a50ff;fill-opacity:1;fill-rule:nonzero;stroke:none"
         d="m 297.99023,-451.43213 c 0,0 0,1.98096 0,1.98096 0,0 1.98047,0 1.98047,0 0,0 0,-1.98096 0,-1.98096 0,0 -1.98047,0 -1.98047,0 z" /><path
         id="path164"
         style="fill:#0a50ff;fill-opacity:1;fill-rule:nonzero;stroke:none"
         d="m 303.93018,-451.43213 c 0,0 0,1.98096 0,1.98096 0,0 1.98095,0 1.98095,0 0,0 0,-1.98096 0,-1.98096 0,0 -1.98095,0 -1.98095,0 z" /><path
         id="path166"
         style="fill:#ffb8de;fill-opacity:1;fill-rule:nonzero;stroke:none"
         d="m 293.04004,-466.28027 c 0,0 0.99023,0 0.99023,0 0,0 0,-0.99024 0,-0.99024 0,0 0.99024,0 0.99024,0 0,0 0,-0.98974 0,-0.98974 0,0 0.99023,0 0.99023,0 0,0 0,0.98974 0,0.98974 0,0 0.98926,0 0.98926,0 0,0 0,0.99024 0,0.99024 0,0 1.98047,0 1.98047,0 0,0 0,-1.97998 0,-1.97998 0,0 1.97949,0 1.97949,0 0,0 0,1.97998 0,1.97998 0,0 1.98047,0 1.98047,0 0,0 0,-0.99024 0,-0.99024 0,0 0.98975,0 0.98975,0 0,0 0,-0.98974 0,-0.98974 0,0 0.99072,0 0.99072,0 0,0 0,0.98974 0,0.98974 0,0 0.99023,0 0.99023,0 0,0 0,0.99024 0,0.99024 0,0 0.98975,0 0.98975,0 0,0 0,-7.91993 0,-7.91993 0,0 -0.98975,0 -0.98975,0 0,0 0,-2.97021 0,-2.97021 0,0 -0.99023,0 -0.99023,0 0,0 0,-0.98975 0,-0.98975 0,0 -0.99072,0 -0.99072,0 0,0 0,-0.99023 0,-0.99023 0,0 -1.97998,0 -1.97998,0 0,0 0,-0.98975 0,-0.98975 0,0 -3.95997,0 -3.95997,0 0,0 0,0.98975 0,0.98975 0,0 -1.97949,0 -1.97949,0 0,0 0,0.99023 0,0.99023 0,0 -0.99023,0 -0.99023,0 0,0 0,0.98975 0,0.98975 0,0 -0.99024,0 -0.99024,0 0,0 0,2.97021 0,2.97021 0,0 -0.99023,0 -0.99023,0 0,0 0,7.91993 0,7.91993 z" /><path
         id="path168"
         style="fill:#ffffff;fill-opacity:1;fill-rule:nonzero;stroke:none"
         d="m 295.02051,-475.19043 c 0,0 0.99023,0 0.99023,0 0,0 0,0.99023 0,0.99023 0,0 1.97949,0 1.97949,0 0,0 0,-0.99023 0,-0.99023 0,0 0.99024,0 0.99024,0 0,0 0,-2.96973 0,-2.96973 0,0 -0.99024,0 -0.99024,0 0,0 0,-0.99023 0,-0.99023 0,0 -1.97949,0 -1.97949,0 0,0 0,0.99023 0,0.99023 0,0 -0.99023,0 -0.99023,0 0,0 0,2.96973 0,2.96973 z" /><path
         id="path170"
         style="fill:#ffffff;fill-opacity:1;fill-rule:nonzero;stroke:none"
         d="m 301.9502,-474.2002 c 0,0 1.97998,0 1.97998,0 0,0 0,-0.99023 0,-0.99023 0,0 0.99072,0 0.99072,0 0,0 0,-2.96973 0,-2.96973 0,0 -0.99072,0 -0.99072,0 0,0 0,-0.99023 0,-0.99023 0,0 -1.97998,0 -1.97998,0 0,0 0,0.99023 0,0.99023 0,0 -0.99024,0 -0.99024,0 0,0 0,2.96973 0,2.96973 0,0 0.99024,0 0.99024,0 0,0 0,0.99023 0,0.99023 z" /><path
         id="path172"
         style="fill:#0a50ff;fill-opacity:1;fill-rule:nonzero;stroke:none"
         d="m 296.01074,-479.15039 c 0,0 1.97949,0 1.97949,0 0,0 0,1.97998 0,1.97998 0,0 -1.97949,0 -1.97949,0 0,0 0,-1.97998 0,-1.97998 z" /><path
         id="path174"
         style="fill:#0a50ff;fill-opacity:1;fill-rule:nonzero;stroke:none"
         d="m 301.9502,-479.15039 c 0,0 1.97998,0 1.97998,0 0,0 0,1.97998 0,1.97998 0,0 -1.97998,0 -1.97998,0 0,0 0,-1.97998 0,-1.97998 z" /><path
         id="path176"
         style="fill:#ffff3e;fill-opacity:1;fill-rule:nonzero;stroke:none"
         d="m 344.51953,-455.39014 c 0,0 4.95117,0 4.95117,0 0,0 0,0.99024 0,0.99024 0,0 1.97852,0 1.97852,0 0,0 0,0.99023 0,0.99023 0,0 0.99023,0 0.99023,0 0,0 0,1.97949 0,1.97949 0,0 -1.97851,0 -1.97851,0 0,0 0,0.99024 0,0.99024 0,0 -2.97071,0 -2.97071,0 0,0 0,0.99023 0,0.99023 0,0 -2.9707,0 -2.9707,0 0,0 0,0.99024 0,0.99024 0,0 2.9707,0 2.9707,0 0,0 0,0.98926 0,0.98926 0,0 2.97071,0 2.97071,0 0,0 0,0.99023 0,0.99023 0,0 1.97851,0 1.97851,0 0,0 0,1.98047 0,1.98047 0,0 -0.99023,0 -0.99023,0 0,0 0,0.98926 0,0.98926 0,0 -1.97852,0 -1.97852,0 0,0 0,0.99023 0,0.99023 0,0 -4.95117,0 -4.95117,0 0,0 0,-0.99023 0,-0.99023 0,0 -1.97851,0 -1.97851,0 0,0 0,-0.98926 0,-0.98926 0,0 -0.99024,0 -0.99024,0 0,0 0,-1.98047 0,-1.98047 0,0 -0.99023,0 -0.99023,0 0,0 0,-4.9502 0,-4.9502 0,0 0.99023,0 0.99023,0 0,0 0,-1.97949 0,-1.97949 0,0 0.99024,0 0.99024,0 0,0 0,-0.99023 0,-0.99023 0,0 1.97851,0 1.97851,0 0,0 0,-0.99024 0,-0.99024 z" /><path
         id="path178"
         style="fill:#ffff3e;fill-opacity:1;fill-rule:nonzero;stroke:none"
         d="m 348.48047,-418.75977 c 0,0 -4.95117,0 -4.95117,0 0,0 0,-0.99023 0,-0.99023 0,0 -1.97852,0 -1.97852,0 0,0 0,-0.99023 0,-0.99023 0,0 -0.99023,0 -0.99023,0 0,0 0,-1.9795 0,-1.9795 0,0 1.97851,0 1.97851,0 0,0 0,-0.99023 0,-0.99023 0,0 2.97071,0 2.97071,0 0,0 0,-0.99024 0,-0.99024 0,0 2.9707,0 2.9707,0 0,0 0,-0.99023 0,-0.99023 0,0 -2.9707,0 -2.9707,0 0,0 0,-0.98926 0,-0.98926 0,0 -2.97071,0 -2.97071,0 0,0 0,-0.99023 0,-0.99023 0,0 -1.97851,0 -1.97851,0 0,0 0,-1.98047 0,-1.98047 0,0 0.99023,0 0.99023,0 0,0 0,-0.98926 0,-0.98926 0,0 1.97852,0 1.97852,0 0,0 0,-0.99023 0,-0.99023 0,0 4.95117,0 4.95117,0 0,0 0,0.99023 0,0.99023 0,0 1.97851,0 1.97851,0 0,0 0,0.98926 0,0.98926 0,0 0.99024,0 0.99024,0 0,0 0,1.98047 0,1.98047 0,0 0.99023,0 0.99023,0 0,0 0,4.95019 0,4.95019 0,0 -0.99023,0 -0.99023,0 0,0 0,1.9795 0,1.9795 0,0 -0.99024,0 -0.99024,0 0,0 0,0.99023 0,0.99023 0,0 -1.97851,0 -1.97851,0 0,0 0,0.99023 0,0.99023 z" /><path
         id="path180"
         style="fill:#ffff3e;fill-opacity:1;fill-rule:nonzero;stroke:none"
         d="m 352.93652,-402.42529 c 0,0 0,4.95117 0,4.95117 0,0 -0.99023,0 -0.99023,0 0,0 0,1.97851 0,1.97851 0,0 -0.99024,0 -0.99024,0 0,0 0,0.98975 0,0.98975 0,0 -1.97949,0 -1.97949,0 0,0 0,-1.97803 0,-1.97803 0,0 -0.99023,0 -0.99023,0 0,0 0,-2.9707 0,-2.9707 0,0 -0.99024,0 -0.99024,0 0,0 0,-2.9707 0,-2.9707 0,0 -0.99023,0 -0.99023,0 0,0 0,2.9707 0,2.9707 0,0 -0.98926,0 -0.98926,0 0,0 0,2.9707 0,2.9707 0,0 -0.99023,0 -0.99023,0 0,0 0,1.97803 0,1.97803 0,0 -1.98047,0 -1.98047,0 0,0 0,-0.98975 0,-0.98975 0,0 -0.98926,0 -0.98926,0 0,0 0,-1.97851 0,-1.97851 0,0 -0.99023,0 -0.99023,0 0,0 0,-4.95117 0,-4.95117 0,0 0.99023,0 0.99023,0 0,0 0,-1.97852 0,-1.97852 0,0 0.98926,0 0.98926,0 0,0 0,-0.99023 0,-0.99023 0,0 1.98047,0 1.98047,0 0,0 0,-0.99024 0,-0.99024 0,0 4.95019,0 4.95019,0 0,0 0,0.99024 0,0.99024 0,0 1.97949,0 1.97949,0 0,0 0,0.99023 0,0.99023 0,0 0.99024,0 0.99024,0 0,0 0,1.97852 0,1.97852 0,0 0.99023,0 0.99023,0 z" /><path
         id="path182"
         style="fill:#ffff3e;fill-opacity:1;fill-rule:nonzero;stroke:none"
         d="m 340.06641,-470.73438 c 0,0 0,-4.95117 0,-4.95117 0,0 0.99023,0 0.99023,0 0,0 0,-1.97851 0,-1.97851 0,0 0.99024,0 0.99024,0 0,0 0,-0.99024 0,-0.99024 0,0 1.97949,0 1.97949,0 0,0 0,1.97852 0,1.97852 0,0 0.99023,0 0.99023,0 0,0 0,2.9707 0,2.9707 0,0 0.99024,0 0.99024,0 0,0 0,2.9707 0,2.9707 0,0 0.99023,0 0.99023,0 0,0 0,-2.9707 0,-2.9707 0,0 0.98926,0 0.98926,0 0,0 0,-2.9707 0,-2.9707 0,0 0.99023,0 0.99023,0 0,0 0,-1.97852 0,-1.97852 0,0 1.98047,0 1.98047,0 0,0 0,0.99024 0,0.99024 0,0 0.98926,0 0.98926,0 0,0 0,1.97851 0,1.97851 0,0 0.99023,0 0.99023,0 0,0 0,4.95117 0,4.95117 0,0 -0.99023,0 -0.99023,0 0,0 0,1.97852 0,1.97852 0,0 -0.98926,0 -0.98926,0 0,0 0,0.99023 0,0.99023 0,0 -1.98047,0 -1.98047,0 0,0 0,0.99024 0,0.99024 0,0 -4.95019,0 -4.95019,0 0,0 0,-0.99024 0,-0.99024 0,0 -1.97949,0 -1.97949,0 0,0 0,-0.99023 0,-0.99023 0,0 -0.99024,0 -0.99024,0 0,0 0,-1.97852 0,-1.97852 0,0 -0.99023,0 -0.99023,0 z" /><path
         id="path184"
         style="fill:#ff1a00;fill-opacity:1;fill-rule:nonzero;stroke:none"
         d="m 246.51025,-379.16016 c 0,0 3.95996,0 3.95996,0 0,0 0,0.98926 0,0.98926 0,0 0.99024,0 0.99024,0 0,0 0,0.99024 0,0.99024 0,0 -0.99024,0 -0.99024,0 0,0 0,0.99023 0,0.99023 0,0 -0.99023,0 -0.99023,0 0,0 0,2.96973 0,2.96973 0,0 -2.96973,0 -2.96973,0 0,0 0,-0.99024 0,-0.99024 0,0 -0.99023,0 -0.99023,0 0,0 0,-3.95996 0,-3.95996 0,0 0.99023,0 0.99023,0 0,0 0,-0.98926 0,-0.98926 z" /><path
         id="path186"
         style="fill:#ff1a00;fill-opacity:1;fill-rule:nonzero;stroke:none"
         d="m 250.47021,-372.23047 c 0,0 0,-3.95996 0,-3.95996 0,0 0.99024,0 0.99024,0 0,0 0,-0.99023 0,-0.99023 0,0 3.95996,0 3.95996,0 0,0 0,0.99023 0,0.99023 0,0 0.99023,0 0.99023,0 0,0 0,3.95996 0,3.95996 0,0 -0.99023,0 -0.99023,0 0,0 0,0.99024 0,0.99024 0,0 -3.95996,0 -3.95996,0 0,0 0,-0.99024 0,-0.99024 0,0 -0.99024,0 -0.99024,0 z" /><path
         id="path188"
         style="fill:#de9747;fill-opacity:1;fill-rule:nonzero;stroke:none"
         d="m 255.42041,-383.12012 c 0,0 1.97949,0 1.97949,0 0,0 0,1.97949 0,1.97949 0,0 -1.97949,0 -1.97949,0 0,0 0,1.98047 0,1.98047 0,0 -0.99023,0 -0.99023,0 0,0 0,-1.98047 0,-1.98047 0,0 -0.99024,0 -0.99024,0 0,0 0,-0.99023 0,-0.99023 0,0 1.98047,0 1.98047,0 0,0 0,-0.98926 0,-0.98926 z" /><path
         id="path190"
         style="fill:#de9747;fill-opacity:1;fill-rule:nonzero;stroke:none"
         d="m 253.43994,-378.1709 c 0,0 0,-0.98926 0,-0.98926 0,0 0.99024,0 0.99024,0 0,0 0,0.98926 0,0.98926 0,0 -0.99024,0 -0.99024,0 z" /><path
         id="path192"
         style="fill:#de9747;fill-opacity:1;fill-rule:nonzero;stroke:none"
         d="m 252.45068,-375.2002 c 0,0 0,-2.9707 0,-2.9707 0,0 0.98926,0 0.98926,0 0,0 0,2.9707 0,2.9707 0,0 -0.98926,0 -0.98926,0 z" /><path
         id="path194"
         style="fill:#de9747;fill-opacity:1;fill-rule:nonzero;stroke:none"
         d="m 251.46045,-381.14063 c 0,0 1.97949,0 1.97949,0 0,0 0,0.99024 0,0.99024 0,0 -1.97949,0 -1.97949,0 0,0 0,-0.99024 0,-0.99024 z" /><path
         id="path196"
         style="fill:#de9747;fill-opacity:1;fill-rule:nonzero;stroke:none"
         d="m 250.47021,-379.16016 c 0,0 0,-0.99023 0,-0.99023 0,0 0.99024,0 0.99024,0 0,0 0,0.99023 0,0.99023 0,0 -0.99024,0 -0.99024,0 z" /><path
         id="path198"
         style="fill:#de9747;fill-opacity:1;fill-rule:nonzero;stroke:none"
         d="m 249.47998,-378.1709 c 0,0 0,-0.98926 0,-0.98926 0,0 0.99023,0 0.99023,0 0,0 0,0.98926 0,0.98926 0,0 -0.99023,0 -0.99023,0 z" /><path
         id="path200"
         style="fill:#de9747;fill-opacity:1;fill-rule:nonzero;stroke:none"
         d="m 248.49072,-378.1709 c 0,0 0.98926,0 0.98926,0 0,0 0,0.99024 0,0.99024 0,0 -0.98926,0 -0.98926,0 0,0 0,-0.99024 0,-0.99024 z" /><path
         id="path202"
         style="fill:#ffffff;fill-opacity:1;fill-rule:nonzero;stroke:none"
         d="m 246.51025,-376.19043 c 0,0 0.99024,0 0.99024,0 0,0 0,0.99023 0,0.99023 0,0 -0.99024,0 -0.99024,0 0,0 0,-0.99023 0,-0.99023 z" /><path
         id="path204"
         style="fill:#ffffff;fill-opacity:1;fill-rule:nonzero;stroke:none"
         d="m 248.49072,-374.21094 c 0,0 0,-0.98926 0,-0.98926 0,0 -0.99023,0 -0.99023,0 0,0 0,0.98926 0,0.98926 0,0 0.99023,0 0.99023,0 z" /><path
         id="path206"
         style="fill:#ffffff;fill-opacity:1;fill-rule:nonzero;stroke:none"
         d="m 251.46045,-374.21094 c 0,0 0.99023,0 0.99023,0 0,0 0,0.99024 0,0.99024 0,0 -0.99023,0 -0.99023,0 0,0 0,-0.99024 0,-0.99024 z" /><path
         id="path208"
         style="fill:#ffffff;fill-opacity:1;fill-rule:nonzero;stroke:none"
         d="m 252.45068,-372.23047 c 0,0 0,-0.99023 0,-0.99023 0,0 0.98926,0 0.98926,0 0,0 0,0.99023 0,0.99023 0,0 -0.98926,0 -0.98926,0 z" /><path
         id="path210"
         style="fill:#ff1a00;fill-opacity:1;fill-rule:nonzero;stroke:none"
         d="m 270.27051,-379.16016 c 0,0 3.95996,0 3.95996,0 0,0 0,0.98926 0,0.98926 0,0 0.99023,0 0.99023,0 0,0 0,0.99024 0,0.99024 0,0 -0.99023,0 -0.99023,0 0,0 0,0.99023 0,0.99023 0,0 -0.99024,0 -0.99024,0 0,0 0,2.96973 0,2.96973 0,0 -2.96972,0 -2.96972,0 0,0 0,-0.99024 0,-0.99024 0,0 -0.99024,0 -0.99024,0 0,0 0,-3.95996 0,-3.95996 0,0 0.99024,0 0.99024,0 0,0 0,-0.98926 0,-0.98926 z" /><path
         id="path212"
         style="fill:#ff1a00;fill-opacity:1;fill-rule:nonzero;stroke:none"
         d="m 274.23047,-372.23047 c 0,0 0,-3.95996 0,-3.95996 0,0 0.99023,0 0.99023,0 0,0 0,-0.99023 0,-0.99023 0,0 3.95996,0 3.95996,0 0,0 0,0.99023 0,0.99023 0,0 0.99024,0 0.99024,0 0,0 0,3.95996 0,3.95996 0,0 -0.99024,0 -0.99024,0 0,0 0,0.99024 0,0.99024 0,0 -3.95996,0 -3.95996,0 0,0 0,-0.99024 0,-0.99024 0,0 -0.99023,0 -0.99023,0 z" /><path
         id="path214"
         style="fill:#de9747;fill-opacity:1;fill-rule:nonzero;stroke:none"
         d="m 279.18066,-383.12012 c 0,0 1.9795,0 1.9795,0 0,0 0,1.97949 0,1.97949 0,0 -1.9795,0 -1.9795,0 0,0 0,1.98047 0,1.98047 0,0 -0.99023,0 -0.99023,0 0,0 0,-1.98047 0,-1.98047 0,0 -0.99023,0 -0.99023,0 0,0 0,-0.99023 0,-0.99023 0,0 1.98046,0 1.98046,0 0,0 0,-0.98926 0,-0.98926 z" /><path
         id="path216"
         style="fill:#de9747;fill-opacity:1;fill-rule:nonzero;stroke:none"
         d="m 277.2002,-378.1709 c 0,0 0,-0.98926 0,-0.98926 0,0 0.99023,0 0.99023,0 0,0 0,0.98926 0,0.98926 0,0 -0.99023,0 -0.99023,0 z" /><path
         id="path218"
         style="fill:#de9747;fill-opacity:1;fill-rule:nonzero;stroke:none"
         d="m 276.21094,-375.2002 c 0,0 0,-2.9707 0,-2.9707 0,0 0.98926,0 0.98926,0 0,0 0,2.9707 0,2.9707 0,0 -0.98926,0 -0.98926,0 z" /><path
         id="path220"
         style="fill:#de9747;fill-opacity:1;fill-rule:nonzero;stroke:none"
         d="m 275.2207,-381.14063 c 0,0 1.9795,0 1.9795,0 0,0 0,0.99024 0,0.99024 0,0 -1.9795,0 -1.9795,0 0,0 0,-0.99024 0,-0.99024 z" /><path
         id="path222"
         style="fill:#de9747;fill-opacity:1;fill-rule:nonzero;stroke:none"
         d="m 274.23047,-379.16016 c 0,0 0,-0.99023 0,-0.99023 0,0 0.99023,0 0.99023,0 0,0 0,0.99023 0,0.99023 0,0 -0.99023,0 -0.99023,0 z" /><path
         id="path224"
         style="fill:#de9747;fill-opacity:1;fill-rule:nonzero;stroke:none"
         d="m 273.24023,-378.1709 c 0,0 0,-0.98926 0,-0.98926 0,0 0.99024,0 0.99024,0 0,0 0,0.98926 0,0.98926 0,0 -0.99024,0 -0.99024,0 z" /><path
         id="path226"
         style="fill:#de9747;fill-opacity:1;fill-rule:nonzero;stroke:none"
         d="m 272.25098,-378.1709 c 0,0 0.98925,0 0.98925,0 0,0 0,0.99024 0,0.99024 0,0 -0.98925,0 -0.98925,0 0,0 0,-0.99024 0,-0.99024 z" /><path
         id="path228"
         style="fill:#ffffff;fill-opacity:1;fill-rule:nonzero;stroke:none"
         d="m 270.27051,-376.19043 c 0,0 0.99023,0 0.99023,0 0,0 0,0.99023 0,0.99023 0,0 -0.99023,0 -0.99023,0 0,0 0,-0.99023 0,-0.99023 z" /><path
         id="path230"
         style="fill:#ffffff;fill-opacity:1;fill-rule:nonzero;stroke:none"
         d="m 272.25098,-374.21094 c 0,0 0,-0.98926 0,-0.98926 0,0 -0.99024,0 -0.99024,0 0,0 0,0.98926 0,0.98926 0,0 0.99024,0 0.99024,0 z" /><path
         id="path232"
         style="fill:#ffffff;fill-opacity:1;fill-rule:nonzero;stroke:none"
         d="m 275.2207,-374.21094 c 0,0 0.99024,0 0.99024,0 0,0 0,0.99024 0,0.99024 0,0 -0.99024,0 -0.99024,0 0,0 0,-0.99024 0,-0.99024 z" /><path
         id="path234"
         style="fill:#ffffff;fill-opacity:1;fill-rule:nonzero;stroke:none"
         d="m 276.21094,-372.23047 c 0,0 0,-0.99023 0,-0.99023 0,0 0.98926,0 0.98926,0 0,0 0,0.99023 0,0.99023 0,0 -0.98926,0 -0.98926,0 z" /><path
         id="path236"
         style="fill:#ff1a00;fill-opacity:1;fill-rule:nonzero;stroke:none"
         d="m 294.03027,-379.16016 c 0,0 3.96094,0 3.96094,0 0,0 0,0.98926 0,0.98926 0,0 0.99024,0 0.99024,0 0,0 0,0.99024 0,0.99024 0,0 -0.99024,0 -0.99024,0 0,0 0,0.99023 0,0.99023 0,0 -0.99023,0 -0.99023,0 0,0 0,2.96973 0,2.96973 0,0 -2.97071,0 -2.97071,0 0,0 0,-0.99024 0,-0.99024 0,0 -0.99023,0 -0.99023,0 0,0 0,-3.95996 0,-3.95996 0,0 0.99023,0 0.99023,0 0,0 0,-0.98926 0,-0.98926 z" /><path
         id="path238"
         style="fill:#ff1a00;fill-opacity:1;fill-rule:nonzero;stroke:none"
         d="m 297.99121,-372.23047 c 0,0 0,-3.95996 0,-3.95996 0,0 0.99024,0 0.99024,0 0,0 0,-0.99023 0,-0.99023 0,0 3.95898,0 3.95898,0 0,0 0,0.99023 0,0.99023 0,0 0.99023,0 0.99023,0 0,0 0,3.95996 0,3.95996 0,0 -0.99023,0 -0.99023,0 0,0 0,0.99024 0,0.99024 0,0 -3.95898,0 -3.95898,0 0,0 0,-0.99024 0,-0.99024 0,0 -0.99024,0 -0.99024,0 z" /><path
         id="path240"
         style="fill:#de9747;fill-opacity:1;fill-rule:nonzero;stroke:none"
         d="m 302.94043,-383.12012 c 0,0 1.98047,0 1.98047,0 0,0 0,1.97949 0,1.97949 0,0 -1.98047,0 -1.98047,0 0,0 0,1.98047 0,1.98047 0,0 -0.99023,0 -0.99023,0 0,0 0,-1.98047 0,-1.98047 0,0 -0.99024,0 -0.99024,0 0,0 0,-0.99023 0,-0.99023 0,0 1.98047,0 1.98047,0 0,0 0,-0.98926 0,-0.98926 z" /><path
         id="path242"
         style="fill:#de9747;fill-opacity:1;fill-rule:nonzero;stroke:none"
         d="m 300.95996,-378.1709 c 0,0 0,-0.98926 0,-0.98926 0,0 0.99024,0 0.99024,0 0,0 0,0.98926 0,0.98926 0,0 -0.99024,0 -0.99024,0 z" /><path
         id="path244"
         style="fill:#de9747;fill-opacity:1;fill-rule:nonzero;stroke:none"
         d="m 299.97168,-375.2002 c 0,0 0,-2.9707 0,-2.9707 0,0 0.98828,0 0.98828,0 0,0 0,2.9707 0,2.9707 0,0 -0.98828,0 -0.98828,0 z" /><path
         id="path246"
         style="fill:#de9747;fill-opacity:1;fill-rule:nonzero;stroke:none"
         d="m 298.98145,-381.14063 c 0,0 1.97851,0 1.97851,0 0,0 0,0.99024 0,0.99024 0,0 -1.97851,0 -1.97851,0 0,0 0,-0.99024 0,-0.99024 z" /><path
         id="path248"
         style="fill:#de9747;fill-opacity:1;fill-rule:nonzero;stroke:none"
         d="m 297.99121,-379.16016 c 0,0 0,-0.99023 0,-0.99023 0,0 0.99024,0 0.99024,0 0,0 0,0.99023 0,0.99023 0,0 -0.99024,0 -0.99024,0 z" /><path
         id="path250"
         style="fill:#de9747;fill-opacity:1;fill-rule:nonzero;stroke:none"
         d="m 297.00098,-378.1709 c 0,0 0,-0.98926 0,-0.98926 0,0 0.99023,0 0.99023,0 0,0 0,0.98926 0,0.98926 0,0 -0.99023,0 -0.99023,0 z" /><path
         id="path252"
         style="fill:#de9747;fill-opacity:1;fill-rule:nonzero;stroke:none"
         d="m 296.01074,-378.1709 c 0,0 0.99024,0 0.99024,0 0,0 0,0.99024 0,0.99024 0,0 -0.99024,0 -0.99024,0 0,0 0,-0.99024 0,-0.99024 z" /><path
         id="path254"
         style="fill:#ffffff;fill-opacity:1;fill-rule:nonzero;stroke:none"
         d="m 294.03027,-376.19043 c 0,0 0.99024,0 0.99024,0 0,0 0,0.99023 0,0.99023 0,0 -0.99024,0 -0.99024,0 0,0 0,-0.99023 0,-0.99023 z" /><path
         id="path256"
         style="fill:#ffffff;fill-opacity:1;fill-rule:nonzero;stroke:none"
         d="m 296.01074,-374.21094 c 0,0 0,-0.98926 0,-0.98926 0,0 -0.99023,0 -0.99023,0 0,0 0,0.98926 0,0.98926 0,0 0.99023,0 0.99023,0 z" /><path
         id="path258"
         style="fill:#ffffff;fill-opacity:1;fill-rule:nonzero;stroke:none"
         d="m 298.98145,-374.21094 c 0,0 0.99023,0 0.99023,0 0,0 0,0.99024 0,0.99024 0,0 -0.99023,0 -0.99023,0 0,0 0,-0.99024 0,-0.99024 z" /><path
         id="path260"
         style="fill:#ffffff;fill-opacity:1;fill-rule:nonzero;stroke:none"
         d="m 299.97168,-372.23047 c 0,0 0,-0.99023 0,-0.99023 0,0 0.98828,0 0.98828,0 0,0 0,0.99023 0,0.99023 0,0 -0.98828,0 -0.98828,0 z" /><path
         id="path262"
         style="fill:#ff1a00;fill-opacity:1;fill-rule:nonzero;stroke:none"
         d="m 319.77051,-379.16016 c 0,0 3.96094,0 3.96094,0 0,0 0,0.98926 0,0.98926 0,0 0.99023,0 0.99023,0 0,0 0,0.99024 0,0.99024 0,0 -0.99023,0 -0.99023,0 0,0 0,0.99023 0,0.99023 0,0 -0.99024,0 -0.99024,0 0,0 0,2.96973 0,2.96973 0,0 -2.9707,0 -2.9707,0 0,0 0,-0.99024 0,-0.99024 0,0 -0.99024,0 -0.99024,0 0,0 0,-3.95996 0,-3.95996 0,0 0.99024,0 0.99024,0 0,0 0,-0.98926 0,-0.98926 z" /><path
         id="path264"
         style="fill:#ff1a00;fill-opacity:1;fill-rule:nonzero;stroke:none"
         d="m 323.73145,-372.23047 c 0,0 0,-3.95996 0,-3.95996 0,0 0.99023,0 0.99023,0 0,0 0,-0.99023 0,-0.99023 0,0 3.95898,0 3.95898,0 0,0 0,0.99023 0,0.99023 0,0 0.99024,0 0.99024,0 0,0 0,3.95996 0,3.95996 0,0 -0.99024,0 -0.99024,0 0,0 0,0.99024 0,0.99024 0,0 -3.95898,0 -3.95898,0 0,0 0,-0.99024 0,-0.99024 0,0 -0.99023,0 -0.99023,0 z" /><path
         id="path266"
         style="fill:#de9747;fill-opacity:1;fill-rule:nonzero;stroke:none"
         d="m 328.68066,-383.12012 c 0,0 1.98047,0 1.98047,0 0,0 0,1.97949 0,1.97949 0,0 -1.98047,0 -1.98047,0 0,0 0,1.98047 0,1.98047 0,0 -0.99023,0 -0.99023,0 0,0 0,-1.98047 0,-1.98047 0,0 -0.99023,0 -0.99023,0 0,0 0,-0.99023 0,-0.99023 0,0 1.98046,0 1.98046,0 0,0 0,-0.98926 0,-0.98926 z" /><path
         id="path268"
         style="fill:#de9747;fill-opacity:1;fill-rule:nonzero;stroke:none"
         d="m 326.7002,-378.1709 c 0,0 0,-0.98926 0,-0.98926 0,0 0.99023,0 0.99023,0 0,0 0,0.98926 0,0.98926 0,0 -0.99023,0 -0.99023,0 z" /><path
         id="path270"
         style="fill:#de9747;fill-opacity:1;fill-rule:nonzero;stroke:none"
         d="m 325.71191,-375.2002 c 0,0 0,-2.9707 0,-2.9707 0,0 0.98829,0 0.98829,0 0,0 0,2.9707 0,2.9707 0,0 -0.98829,0 -0.98829,0 z" /><path
         id="path272"
         style="fill:#de9747;fill-opacity:1;fill-rule:nonzero;stroke:none"
         d="m 324.72168,-381.14063 c 0,0 1.97852,0 1.97852,0 0,0 0,0.99024 0,0.99024 0,0 -1.97852,0 -1.97852,0 0,0 0,-0.99024 0,-0.99024 z" /><path
         id="path274"
         style="fill:#de9747;fill-opacity:1;fill-rule:nonzero;stroke:none"
         d="m 323.73145,-379.16016 c 0,0 0,-0.99023 0,-0.99023 0,0 0.99023,0 0.99023,0 0,0 0,0.99023 0,0.99023 0,0 -0.99023,0 -0.99023,0 z" /><path
         id="path276"
         style="fill:#de9747;fill-opacity:1;fill-rule:nonzero;stroke:none"
         d="m 322.74121,-378.1709 c 0,0 0,-0.98926 0,-0.98926 0,0 0.99024,0 0.99024,0 0,0 0,0.98926 0,0.98926 0,0 -0.99024,0 -0.99024,0 z" /><path
         id="path278"
         style="fill:#de9747;fill-opacity:1;fill-rule:nonzero;stroke:none"
         d="m 321.75098,-378.1709 c 0,0 0.99023,0 0.99023,0 0,0 0,0.99024 0,0.99024 0,0 -0.99023,0 -0.99023,0 0,0 0,-0.99024 0,-0.99024 z" /><path
         id="path280"
         style="fill:#ffffff;fill-opacity:1;fill-rule:nonzero;stroke:none"
         d="m 319.77051,-376.19043 c 0,0 0.99023,0 0.99023,0 0,0 0,0.99023 0,0.99023 0,0 -0.99023,0 -0.99023,0 0,0 0,-0.99023 0,-0.99023 z" /><path
         id="path282"
         style="fill:#ffffff;fill-opacity:1;fill-rule:nonzero;stroke:none"
         d="m 321.75098,-374.21094 c 0,0 0,-0.98926 0,-0.98926 0,0 -0.99024,0 -0.99024,0 0,0 0,0.98926 0,0.98926 0,0 0.99024,0 0.99024,0 z" /><path
         id="path284"
         style="fill:#ffffff;fill-opacity:1;fill-rule:nonzero;stroke:none"
         d="m 324.72168,-374.21094 c 0,0 0.99023,0 0.99023,0 0,0 0,0.99024 0,0.99024 0,0 -0.99023,0 -0.99023,0 0,0 0,-0.99024 0,-0.99024 z" /><path
         id="path286"
         style="fill:#ffffff;fill-opacity:1;fill-rule:nonzero;stroke:none"
         d="m 325.71191,-372.23047 c 0,0 0,-0.99023 0,-0.99023 0,0 0.98829,0 0.98829,0 0,0 0,0.99023 0,0.99023 0,0 -0.98829,0 -0.98829,0 z" /><path
         id="path288"
         style="fill:#ff1a00;fill-opacity:1;fill-rule:nonzero;stroke:none"
         d="m 342.54004,-379.16016 c 0,0 3.96094,0 3.96094,0 0,0 0,0.98926 0,0.98926 0,0 0.99023,0 0.99023,0 0,0 0,0.99024 0,0.99024 0,0 -0.99023,0 -0.99023,0 0,0 0,0.99023 0,0.99023 0,0 -0.99024,0 -0.99024,0 0,0 0,2.96973 0,2.96973 0,0 -2.9707,0 -2.9707,0 0,0 0,-0.99024 0,-0.99024 0,0 -0.99024,0 -0.99024,0 0,0 0,-3.95996 0,-3.95996 0,0 0.99024,0 0.99024,0 0,0 0,-0.98926 0,-0.98926 z" /><path
         id="path290"
         style="fill:#ff1a00;fill-opacity:1;fill-rule:nonzero;stroke:none"
         d="m 346.50098,-372.23047 c 0,0 0,-3.95996 0,-3.95996 0,0 0.99023,0 0.99023,0 0,0 0,-0.99023 0,-0.99023 0,0 3.95899,0 3.95899,0 0,0 0,0.99023 0,0.99023 0,0 0.99023,0 0.99023,0 0,0 0,3.95996 0,3.95996 0,0 -0.99023,0 -0.99023,0 0,0 0,0.99024 0,0.99024 0,0 -3.95899,0 -3.95899,0 0,0 0,-0.99024 0,-0.99024 0,0 -0.99023,0 -0.99023,0 z" /><path
         id="path292"
         style="fill:#de9747;fill-opacity:1;fill-rule:nonzero;stroke:none"
         d="m 351.4502,-383.12012 c 0,0 1.98046,0 1.98046,0 0,0 0,1.97949 0,1.97949 0,0 -1.98046,0 -1.98046,0 0,0 0,1.98047 0,1.98047 0,0 -0.99024,0 -0.99024,0 0,0 0,-1.98047 0,-1.98047 0,0 -0.99023,0 -0.99023,0 0,0 0,-0.99023 0,-0.99023 0,0 1.98047,0 1.98047,0 0,0 0,-0.98926 0,-0.98926 z" /><path
         id="path294"
         style="fill:#de9747;fill-opacity:1;fill-rule:nonzero;stroke:none"
         d="m 349.46973,-378.1709 c 0,0 0,-0.98926 0,-0.98926 0,0 0.99023,0 0.99023,0 0,0 0,0.98926 0,0.98926 0,0 -0.99023,0 -0.99023,0 z" /><path
         id="path296"
         style="fill:#de9747;fill-opacity:1;fill-rule:nonzero;stroke:none"
         d="m 348.48145,-375.2002 c 0,0 0,-2.9707 0,-2.9707 0,0 0.98828,0 0.98828,0 0,0 0,2.9707 0,2.9707 0,0 -0.98828,0 -0.98828,0 z" /><path
         id="path298"
         style="fill:#de9747;fill-opacity:1;fill-rule:nonzero;stroke:none"
         d="m 347.49121,-381.14063 c 0,0 1.97852,0 1.97852,0 0,0 0,0.99024 0,0.99024 0,0 -1.97852,0 -1.97852,0 0,0 0,-0.99024 0,-0.99024 z" /><path
         id="path300"
         style="fill:#de9747;fill-opacity:1;fill-rule:nonzero;stroke:none"
         d="m 346.50098,-379.16016 c 0,0 0,-0.99023 0,-0.99023 0,0 0.99023,0 0.99023,0 0,0 0,0.99023 0,0.99023 0,0 -0.99023,0 -0.99023,0 z" /><path
         id="path302"
         style="fill:#de9747;fill-opacity:1;fill-rule:nonzero;stroke:none"
         d="m 345.51074,-378.1709 c 0,0 0,-0.98926 0,-0.98926 0,0 0.99024,0 0.99024,0 0,0 0,0.98926 0,0.98926 0,0 -0.99024,0 -0.99024,0 z" /><path
         id="path304"
         style="fill:#de9747;fill-opacity:1;fill-rule:nonzero;stroke:none"
         d="m 344.52051,-378.1709 c 0,0 0.99023,0 0.99023,0 0,0 0,0.99024 0,0.99024 0,0 -0.99023,0 -0.99023,0 0,0 0,-0.99024 0,-0.99024 z" /><path
         id="path306"
         style="fill:#ffffff;fill-opacity:1;fill-rule:nonzero;stroke:none"
         d="m 342.54004,-376.19043 c 0,0 0.99023,0 0.99023,0 0,0 0,0.99023 0,0.99023 0,0 -0.99023,0 -0.99023,0 0,0 0,-0.99023 0,-0.99023 z" /><path
         id="path308"
         style="fill:#ffffff;fill-opacity:1;fill-rule:nonzero;stroke:none"
         d="m 344.52051,-374.21094 c 0,0 0,-0.98926 0,-0.98926 0,0 -0.99024,0 -0.99024,0 0,0 0,0.98926 0,0.98926 0,0 0.99024,0 0.99024,0 z" /><path
         id="path310"
         style="fill:#ffffff;fill-opacity:1;fill-rule:nonzero;stroke:none"
         d="m 347.49121,-374.21094 c 0,0 0.99024,0 0.99024,0 0,0 0,0.99024 0,0.99024 0,0 -0.99024,0 -0.99024,0 0,0 0,-0.99024 0,-0.99024 z" /><path
         id="path312"
         style="fill:#ffffff;fill-opacity:1;fill-rule:nonzero;stroke:none"
         d="m 348.48145,-372.23047 c 0,0 0,-0.99023 0,-0.99023 0,0 0.98828,0 0.98828,0 0,0 0,0.99023 0,0.99023 0,0 -0.98828,0 -0.98828,0 z" /></g></g></svg>